<svg width="160" height="138" viewBox="0 0 160 138" fill="none" xmlns="http://www.w3.org/2000/svg">
	<path d="M84.7289 137.553C116.942 137.553 143.056 111.439 143.056 79.2265C143.056 47.0136 116.942 20.8999 84.7289 20.8999C52.516 20.8999 26.4023 47.0136 26.4023 79.2265C26.4023 111.439 52.516 137.553 84.7289 137.553Z" fill="url(#paint0_linear_4300_465)" />
	<path d="M49.5704 101.812L74.0792 34.5127L125.763 89.1604L65.735 116.716C56.1192 121.131 45.9499 111.754 49.5704 101.812Z" fill="#E1DCEB" />
	<path d="M106.608 55.7664C113.744 63.3695 119.495 70.9072 123.028 76.9439C124.795 79.964 125.999 82.5964 126.548 84.6664C126.822 85.7016 126.929 86.5833 126.867 87.2959C126.806 88.0065 126.58 88.5323 126.203 88.886C125.826 89.2396 125.287 89.4323 124.574 89.4484C123.859 89.4646 122.986 89.3022 121.97 88.9629C119.939 88.2844 117.388 86.9157 114.486 84.9609C108.685 81.0535 101.527 74.8359 94.3906 67.2327C87.2546 59.6296 81.5027 52.0919 77.9705 46.0552C76.2034 43.0351 74.999 40.4027 74.4505 38.3327C74.1761 37.2975 74.0694 36.4158 74.1308 35.7032C74.1921 34.9926 74.4185 34.4668 74.7953 34.1131C75.1721 33.7595 75.7111 33.5668 76.4242 33.5507C77.1393 33.5345 78.0125 33.6969 79.0282 34.0362C81.0593 34.7147 83.6102 36.0834 86.5123 38.0382C92.3132 41.9456 99.4716 48.1632 106.608 55.7664Z" fill="#011625" stroke="#011625" stroke-width="0.496396" />
	<mask id="mask0_4300_465" style="mask-type:alpha" maskUnits="userSpaceOnUse" x="48" y="34" width="78" height="84">
		<path d="M49.5704 101.812L74.0792 34.5126L125.763 89.1603L65.735 116.716C56.1192 121.13 45.9499 111.754 49.5704 101.812Z" fill="#E1DCEB" />
	</mask>
	<g mask="url(#mask0_4300_465)">
		<path fill-rule="evenodd" clip-rule="evenodd" d="M72.9286 79.2632C62.5737 65.7024 57.3344 49.5354 55.6445 38.6814L63.9828 37.3832C65.5039 47.1532 70.305 61.9224 79.6356 74.1418C88.8784 86.2461 102.401 95.6852 121.686 95.6852V104.124C99.1795 104.124 83.3713 92.939 72.9286 79.2632Z" fill="#011625" />
		<path fill-rule="evenodd" clip-rule="evenodd" d="M74.0419 76.6698C63.6869 63.109 58.4477 46.942 56.7578 36.088L65.0961 34.7898C66.6172 44.5599 71.4183 59.3291 80.7489 71.5484C89.9917 83.6527 103.514 93.0918 122.799 93.0918V101.531C100.293 101.531 84.4846 90.3456 74.0419 76.6698Z" fill="white" />
		<path fill-rule="evenodd" clip-rule="evenodd" d="M60.702 96.3059C50.3471 82.7451 45.1078 66.5781 43.418 55.7241L51.7563 54.4259C53.2773 64.196 58.0784 78.9652 67.409 91.1845C76.6518 103.289 90.1744 112.728 109.459 112.728V121.167C86.9529 121.167 71.1448 109.982 60.702 96.3059Z" fill="white" />
	</g>
	<circle cx="96.8919" cy="107.273" r="14.8919" fill="#FE0000" />
	<path fill-rule="evenodd" clip-rule="evenodd" d="M102.917 102.754C103.493 103.341 103.485 104.284 102.899 104.86L95.8287 111.81C95.2492 112.379 94.3202 112.379 93.7408 111.81L90.8828 109C90.2962 108.424 90.2881 107.481 90.8647 106.894C91.4412 106.308 92.3841 106.3 92.9706 106.876L94.7847 108.66L100.811 102.736C101.397 102.16 102.34 102.168 102.917 102.754Z" fill="white" />
	<path d="M126.015 36.1736L126.015 36.1734C126.897 33.9355 127.248 31.7036 127.616 29.3642C127.679 28.9656 127.742 28.5639 127.808 28.1585L126.015 36.1736ZM126.015 36.1736C125.865 36.5556 125.432 36.7445 125.051 36.5936L125.049 36.5931C124.667 36.4447 124.478 36.0128 124.629 35.6313L124.629 35.6313M126.015 36.1736L124.629 35.6313M124.629 35.6313C125.469 33.4947 125.801 31.3551 126.138 29.1826M124.629 35.6313L126.138 29.1826M126.138 29.1826C126.203 28.7628 126.268 28.3418 126.338 27.9194L126.138 29.1826ZM127.193 27.3046C127.6 27.3716 127.874 27.7535 127.808 28.1584L126.338 27.9193C126.404 27.5134 126.788 27.2378 127.193 27.3046Z" fill="#011625" stroke="#011625" stroke-width="0.496396" />
	<path d="M131.136 42.1426L131.136 42.1428C130.799 42.3769 130.334 42.2927 130.099 41.956C129.865 41.6209 129.948 41.1581 130.285 40.9235C135.283 37.4636 140.18 32.8043 143.822 27.9232L143.822 27.923C144.066 27.5945 144.534 27.5263 144.865 27.771C145.194 28.0144 145.263 28.4799 145.018 28.809C141.286 33.8116 136.263 38.5915 131.136 42.1426Z" fill="#011625" stroke="#011625" stroke-width="0.496396" />
	<path d="M144.894 45.4145L144.894 45.4141C144.781 45.0201 144.368 44.7914 143.972 44.9035C140.278 45.9601 136.142 46.5738 132.337 45.4127L132.337 45.4127C131.943 45.2924 131.526 45.5145 131.407 45.9044L131.407 45.9045C131.287 46.2941 131.508 46.7112 131.901 46.8314L144.894 45.4145ZM144.894 45.4145C145.007 45.8043 144.78 46.2161 144.384 46.3311M144.894 45.4145L144.384 46.3311M144.384 46.3311C140.365 47.4793 135.937 48.0635 131.902 46.8315L144.384 46.3311Z" fill="#011625" stroke="#011625" stroke-width="0.496396" />
	<circle cx="132.139" cy="54.1586" r="2.97838" fill="#1749B3" />
	<circle cx="107.318" cy="23.3819" r="2.97838" fill="#1749B3" />
	<path d="M113.046 36.517C112.789 35.4527 111.275 35.4527 111.018 36.517L110.685 37.8955C110.593 38.2759 110.296 38.5728 109.916 38.6646L108.537 38.9974C107.473 39.2543 107.473 40.7681 108.537 41.0251L109.916 41.3578C110.296 41.4497 110.593 41.7466 110.685 42.1269L111.018 43.5055C111.275 44.5698 112.789 44.5698 113.046 43.5055L113.378 42.1269C113.47 41.7466 113.767 41.4497 114.147 41.3578L115.526 41.0251C116.59 40.7681 116.59 39.2543 115.526 38.9974L114.147 38.6646C113.767 38.5728 113.47 38.2759 113.378 37.8955L113.046 36.517Z" fill="#1749B3" />
	<path fill-rule="evenodd" clip-rule="evenodd" d="M100.351 13.6082C100.652 14.3736 100.275 15.2381 99.5098 15.539C97.325 16.3982 94.5252 19.1654 92.6558 22.6098C91.2328 25.2316 90.5416 27.8795 90.8318 30.0464C91.7061 28.7985 92.7527 27.7749 93.9666 27.1174C96.1426 25.9387 98.6254 26.0638 101.029 27.7018C103.129 29.133 103.986 31.1695 103.759 33.1987C103.542 35.1388 102.359 36.8926 100.753 37.9945C99.1234 39.1128 96.9596 39.6285 94.7276 38.945C93.4623 38.5575 92.2489 37.8083 91.1383 36.6707C90.0791 40.7949 90.1172 45.9609 91.8681 50.5299C92.1624 51.2979 91.7784 52.159 91.0104 52.4533C90.2424 52.7476 89.3812 52.3636 89.0869 51.5956C86.7778 45.57 87.0778 38.6882 88.9608 33.6761C88.9073 33.5794 88.8542 33.4815 88.8016 33.3822C86.8208 29.6421 88.0068 24.9318 90.0381 21.1891C92.0851 17.4175 95.3311 13.9818 98.4198 12.7673C99.1852 12.4663 100.05 12.8428 100.351 13.6082ZM92.305 33.42C93.4296 35.0178 94.5965 35.7899 95.5997 36.0971C96.8629 36.484 98.0946 36.2065 99.0677 35.5387C100.065 34.8544 100.691 33.8292 100.799 32.8678C100.896 31.9954 100.592 31.0079 99.3518 30.163C97.7805 29.0922 96.4901 29.1378 95.3852 29.7362C94.2834 30.333 93.1926 31.5819 92.305 33.42Z" fill="#E3E3E3" />
	<path fill-rule="evenodd" clip-rule="evenodd" d="M148.425 71.8509C132.816 66.0491 120.87 73.2634 117.007 77.3438C116.065 78.3393 114.494 78.3823 113.498 77.44C112.503 76.4976 112.46 74.9267 113.402 73.9312C118.308 68.7493 132.272 60.5512 150.155 67.1979C151.44 67.6755 152.094 69.1042 151.616 70.3891C151.139 71.674 149.71 72.3285 148.425 71.8509Z" fill="#CCC6D9" />
	<path fill-rule="evenodd" clip-rule="evenodd" d="M132.543 77.0665C132.892 76.939 133.258 76.7695 133.541 76.524C133.877 76.2325 134.013 75.8571 134.105 75.4619C134.223 74.9542 134.27 74.4134 134.412 73.9048C134.465 73.716 134.567 73.6446 134.611 73.6129C134.721 73.5329 134.832 73.5115 134.937 73.5195C135.062 73.5288 135.232 73.5771 135.345 73.7913C135.361 73.8219 135.381 73.8686 135.395 73.9326C135.406 73.9795 135.412 74.1262 135.423 74.1867C135.45 74.3356 135.473 74.4846 135.494 74.6343C135.565 75.1328 135.605 75.5561 135.828 76.0141C136.131 76.6358 136.435 77.0161 136.846 77.1846C137.244 77.3475 137.72 77.3169 138.328 77.1891C138.386 77.1747 138.443 77.1624 138.5 77.1523C138.768 77.1042 139.024 77.285 139.077 77.5594C139.13 77.8337 138.959 78.1009 138.694 78.1612C138.638 78.1737 138.584 78.1856 138.53 78.1966C137.708 78.4056 136.757 79.1515 136.204 79.8047C136.034 80.0061 135.784 80.5691 135.53 80.9283C135.342 81.1933 135.131 81.3679 134.954 81.4296C134.835 81.4712 134.735 81.4648 134.652 81.4438C134.532 81.4134 134.433 81.3465 134.356 81.2402C134.314 81.182 134.276 81.104 134.257 81.0044C134.249 80.9565 134.248 80.8347 134.248 80.7796C134.196 80.5963 134.132 80.4173 134.086 80.2324C133.976 79.7911 133.76 79.5117 133.502 79.1427C133.262 78.7973 133.004 78.5802 132.625 78.407C132.576 78.3947 132.179 78.2947 132.038 78.2373C131.833 78.1531 131.736 78.0122 131.7 77.9363C131.64 77.8075 131.634 77.695 131.646 77.6012C131.663 77.4628 131.724 77.3443 131.831 77.2486C131.898 77.1891 131.997 77.1313 132.13 77.1032C132.233 77.0811 132.505 77.0684 132.543 77.0665ZM134.875 76.3473C134.893 76.3895 134.913 76.4319 134.933 76.4747C135.377 77.3852 135.873 77.8935 136.476 78.1402L136.496 78.1482C136.093 78.456 135.728 78.7999 135.449 79.1297C135.334 79.2655 135.182 79.5475 135.017 79.8368C134.868 79.3379 134.624 78.9853 134.317 78.544C134.082 78.2073 133.836 77.9538 133.534 77.7473C133.769 77.6236 133.992 77.4788 134.187 77.3097C134.511 77.0281 134.726 76.7018 134.875 76.3473Z" fill="#1749B3" />
	<path d="M42.5492 84.8854C42.5119 85.1987 42.227 85.4215 41.9137 85.382C41.6026 85.3424 41.3788 85.0558 41.4184 84.742L42.5492 84.8854ZM42.5492 84.8854L42.7957 84.9147C42.7421 85.3649 42.3325 85.6849 41.8827 85.6283L41.8823 85.6282C41.4358 85.5714 41.1155 85.1611 41.1721 84.7113C41.5411 81.723 42.8184 79.2211 45.0593 77.2043C45.3955 76.9017 45.9142 76.9309 46.2144 77.2696C46.5161 77.6072 46.4873 78.1259 46.152 78.4278L46.1519 78.4279C44.2137 80.1715 43.1151 82.3267 42.7956 84.9158L42.5492 84.8854Z" fill="#011625" stroke="#011625" stroke-width="0.496396" />
	<path d="M16.2753 90.0656L16.2751 90.0656C15.672 89.8704 15.3845 89.3588 15.3418 88.7678C15.301 88.2263 15.4869 87.5831 15.5964 87.286C15.5964 87.2859 15.5964 87.2859 15.5964 87.2858L15.8293 87.3717L16.2753 90.0656ZM16.2753 90.0656C16.9811 90.2935 17.5324 90.1818 17.9391 89.889C18.327 89.6104 18.5709 89.1577 18.6782 88.626L18.6783 88.6259M16.2753 90.0656L18.6783 88.6259M18.6783 88.6259C18.7805 88.1185 18.7574 87.5173 18.6751 86.9577C18.6011 86.4545 18.4767 85.9685 18.3388 85.591M18.6783 88.6259L18.3388 85.591M40.8408 104.922C40.8105 104.693 40.774 104.391 40.73 104.029C40.4357 101.601 39.8091 96.4319 38.513 91.8567C37.5566 88.4789 36.2695 85.4127 34.4165 84.1521C29.1223 80.552 22.9772 80.4426 19.372 83.9998C18.888 84.4774 18.4478 84.9979 18.0598 85.5562C18.357 86.2986 18.6236 87.6405 18.4349 88.5769L40.8408 104.922ZM40.8408 104.922C40.8992 105.357 40.981 105.608 41.0118 105.655C41.1581 105.891 41.3554 105.927 41.4899 105.931C41.6844 105.934 41.8292 105.874 41.9405 105.791C42.0908 105.677 42.2012 105.503 42.2262 105.257C42.239 105.121 42.2188 104.938 42.1832 104.745C42.1753 104.705 42.1652 104.664 42.1553 104.624C42.1323 104.53 42.11 104.439 42.118 104.369M40.8408 104.922L18.3388 85.591M18.3388 85.591C18.6992 85.0859 19.1039 84.613 19.5463 84.1765C23.0377 80.7316 29.042 80.7976 34.2769 84.3573C35.1522 84.9528 35.9138 85.9906 36.5789 87.3214C37.2422 88.6483 37.7981 90.2428 38.2742 91.9244C39.5643 96.4785 40.1884 101.625 40.4832 104.056C40.5274 104.42 40.5642 104.724 40.5947 104.955L40.5948 104.955C40.6251 105.181 40.662 105.362 40.6963 105.496C40.7134 105.562 40.7302 105.619 40.746 105.664C40.759 105.701 40.7774 105.749 40.8017 105.788C41.0084 106.119 41.3022 106.173 41.4827 106.179L41.4854 106.179C41.7394 106.183 41.9373 106.103 42.0888 105.99L42.09 105.989C42.2964 105.833 42.4413 105.595 42.4732 105.282L42.4733 105.28C42.4895 105.108 42.4637 104.898 42.4272 104.7L42.4268 104.697C42.4191 104.658 42.4098 104.619 42.4015 104.585C42.3996 104.578 42.3978 104.57 42.396 104.563C42.3895 104.537 42.3839 104.513 42.3787 104.491C42.3723 104.462 42.3682 104.44 42.3661 104.422C42.3639 104.404 42.3647 104.397 42.3646 104.397L42.118 104.369M42.118 104.369C42.1847 103.807 42.2806 103.251 42.3767 102.694C42.3907 102.613 42.4047 102.531 42.4187 102.45C42.7818 100.303 43.368 98.2506 44.0536 96.1849C44.2375 95.6305 44.4203 95.0738 44.6035 94.5158C46.5895 88.4679 48.6241 82.2718 52.6757 77.2863C52.8741 77.0419 52.839 76.6803 52.5945 76.4801M42.118 104.369L42.3645 104.398C42.4303 103.843 42.525 103.294 42.6212 102.737C42.6352 102.655 42.6493 102.574 42.6633 102.492L42.6634 102.491C43.0236 100.361 43.6056 98.3227 44.2891 96.2631L44.0641 96.1884L44.2891 96.2631C44.4727 95.7099 44.655 95.1549 44.8375 94.5991C46.8265 88.5431 48.8472 82.3909 52.8683 77.4428L52.8684 77.4427C53.1522 77.0932 53.1028 76.576 52.7523 76.2885M52.5945 76.4801L52.7528 76.2889C52.7526 76.2888 52.7524 76.2886 52.7523 76.2885M52.5945 76.4801C52.3522 76.2795 51.9933 76.3154 51.7927 76.5603L52.5945 76.4801ZM52.7523 76.2885C52.4028 75.9997 51.8874 76.053 51.6007 76.403L51.6001 76.4037C47.4022 81.568 45.2916 87.9824 43.2495 94.189C43.0785 94.7085 42.9081 95.2265 42.7369 95.7423L42.7369 95.7423C42.2946 97.0759 41.8915 98.4072 41.5599 99.7625M52.7523 76.2885L41.5599 99.7625M41.5599 99.7625C41.1304 96.9181 40.4778 93.398 39.4931 90.2916C38.9836 88.6841 38.377 87.1826 37.6668 85.9247C36.958 84.6692 36.1373 83.6409 35.1929 82.9983L35.1928 82.9983C29.3291 79.0108 22.457 78.999 18.399 83.0047L18.3989 83.0048C18.0436 83.3558 17.7075 83.7281 17.3955 84.1196C14.2732 80.3669 9.00027 79.5424 4.89126 82.293C4.89121 82.2931 4.89116 82.2931 4.89111 82.2931L5.02918 82.4994M41.5599 99.7625L16.5206 85.6637C16.4891 85.6198 16.4573 85.5764 16.4252 85.5334C16.453 85.4857 16.4811 85.4382 16.5096 85.3909L16.7222 85.519C14.1193 81.8916 9.34644 80.9874 5.66266 83.4533C5.40005 83.6286 5.04694 83.5568 4.87077 83.2937C4.69686 83.0304 4.76657 82.6747 5.02918 82.4994M5.02918 82.4994C9.04574 79.8105 14.201 80.6276 17.2392 84.3201L5.02918 82.4994ZM16.9898 88.5496C16.9867 88.5498 16.9822 88.55 16.9756 88.5497C16.9746 88.5496 16.9736 88.5496 16.9725 88.5495L16.9898 88.5496ZM16.9898 88.5496C16.9969 88.5428 17.0091 88.5273 17.0234 88.4919C17.0424 88.445 17.0573 88.3836 17.0747 88.2981L17.0747 88.2978C17.1 88.1735 17.1139 88.0364 17.1181 87.8919M16.9898 88.5496L17.1181 87.8919M17.1181 87.8919C17.0618 88.0521 16.9855 88.3109 16.9726 88.5451L17.1181 87.8919Z" fill="#011625" stroke="#011625" stroke-width="0.496396" />
	<defs>
		<linearGradient id="paint0_linear_4300_465" x1="84.2793" y1="1.90733" x2="85.4741" y2="206.741" gradientUnits="userSpaceOnUse">
			<stop stop-color="#E9E6E6" />
			<stop offset="0.276042" stop-color="#F7F7F7" />
		</linearGradient>
	</defs>
</svg>
