<svg width="20" height="20" viewBox="0 0 20 20" fill="none" xmlns="http://www.w3.org/2000/svg">
<g clip-path="url(#clip0_221_1463)">
<path d="M7.78547 15.6511L6.1763 15.2195L6.83214 12.7703C5.85044 12.4083 4.93807 11.8806 4.13464 11.2103L2.34047 13.0053L1.1613 11.8261L2.9563 10.032C1.94303 8.81844 1.26221 7.36261 0.980469 5.80698L2.62047 5.50781C3.25297 9.00948 6.3163 11.6661 10.0005 11.6661C13.6838 11.6661 16.748 9.00948 17.3805 5.50781L19.0205 5.80615C18.7391 7.36199 18.0586 8.81812 17.0455 10.032L18.8396 11.8261L17.6605 13.0053L15.8663 11.2103C15.0629 11.8806 14.1505 12.4083 13.1688 12.7703L13.8246 15.2203L12.2155 15.6511L11.5588 13.2011C10.5274 13.3779 9.47351 13.3779 8.44214 13.2011L7.78547 15.6511Z" fill="#9C99AD"/>
</g>
<defs>
<clipPath id="clip0_221_1463">
<rect width="20" height="20" fill="white"/>
</clipPath>
</defs>
</svg>
