<svg xmlns="http://www.w3.org/2000/svg" xmlns:xlink="http://www.w3.org/1999/xlink">
	<defs>
		<symbol id="account-info" viewBox="0 0 24 24">
			<g clip-path="url(#clip0_224_434)">
				<path d="M9.95405 2.2107C11.303 1.92784 12.6958 1.92716 14.045 2.2087C14.1349 2.80199 14.3574 3.36739 14.6958 3.86288C15.0343 4.35837 15.4801 4.77121 16 5.0707C16.5196 5.37123 17.1002 5.55077 17.6987 5.59595C18.2973 5.64114 18.8983 5.55082 19.457 5.3317C20.3753 6.35976 21.0709 7.56674 21.5 8.8767C21.0314 9.25128 20.6532 9.72665 20.3935 10.2675C20.1338 10.8083 19.9993 11.4007 20 12.0007C20 13.2647 20.586 14.3917 21.502 15.1247C21.0704 16.4336 20.3739 17.6396 19.456 18.6677C18.8974 18.4487 18.2966 18.3585 17.6983 18.4037C17.0999 18.4489 16.5195 18.6283 16 18.9287C15.4805 19.2281 15.0351 19.6407 14.6968 20.1358C14.3585 20.6309 14.1361 21.1959 14.046 21.7887C12.6973 22.0722 11.3044 22.0736 9.95505 21.7927C9.86559 21.1989 9.64335 20.6329 9.30487 20.1368C8.96639 19.6408 8.52038 19.2275 8.00005 18.9277C7.48041 18.6273 6.89975 18.448 6.30124 18.403C5.70272 18.3579 5.10176 18.4484 4.54305 18.6677C3.62465 17.6393 2.92905 16.432 2.50005 15.1217C2.96844 14.7473 3.34651 14.2723 3.60618 13.7318C3.86586 13.1913 4.00048 12.5993 4.00005 11.9997C4.00054 11.3996 3.86575 10.8071 3.60571 10.2662C3.34568 9.72537 2.96707 9.25008 2.49805 8.8757C2.92972 7.56683 3.62616 6.3608 4.54405 5.3327C5.1027 5.55166 5.70352 5.6419 6.30184 5.59671C6.90017 5.55153 7.48061 5.37208 8.00005 5.0717C8.51959 4.7723 8.96503 4.35973 9.30331 3.86461C9.64158 3.36949 9.864 2.80454 9.95405 2.2117V2.2107ZM12 15.0007C12.7957 15.0007 13.5588 14.6846 14.1214 14.122C14.684 13.5594 15 12.7964 15 12.0007C15 11.2051 14.684 10.442 14.1214 9.87938C13.5588 9.31677 12.7957 9.0007 12 9.0007C11.2044 9.0007 10.4413 9.31677 9.87873 9.87938C9.31612 10.442 9.00005 11.2051 9.00005 12.0007C9.00005 12.7964 9.31612 13.5594 9.87873 14.122C10.4413 14.6846 11.2044 15.0007 12 15.0007V15.0007Z" fill="#9C99AD" />
			</g>
			<defs>
				<clipPath id="clip0_224_434">
					<rect width="24" height="24" fill="white" />
				</clipPath>
			</defs>
		</symbol>
		<symbol id="arrow-down" viewBox="0 0 20 20">
			<path d="M16.0423 9.36094C16.7418 8.85538 16.8732 7.91214 16.3357 7.25414C15.7982 6.59614 14.7954 6.47257 14.0959 6.97812L9.02938 10.6397C8.32984 11.1453 8.19846 12.0885 8.73594 12.7465C9.27342 13.4045 10.2762 13.5281 10.9758 13.0225L16.0423 9.36094Z" />
			<path d="M5.90217 6.98292C5.20195 6.47819 4.19932 6.60296 3.66272 7.26159C3.12613 7.92023 3.25877 8.86332 3.95899 9.36805L9.03042 13.0236C9.73064 13.5283 10.7333 13.4036 11.2699 12.7449C11.8065 12.0863 11.6738 11.1432 10.9736 10.6385L5.90217 6.98292Z" />
		</symbol>
		<symbol id="menu-home" viewBox="0 0 24 24">
			<g clip-path="url(#clip0_295_2314)">
				<path d="M19.2727 20.0839C19.2727 20.3269 19.1769 20.5599 19.0065 20.7317C18.836 20.9035 18.6047 21 18.3636 21H5.63636C5.39526 21 5.16403 20.9035 4.99354 20.7317C4.82305 20.5599 4.72727 20.3269 4.72727 20.0839V11.8389H2L11.3882 3.23852C11.5556 3.08505 11.7737 3 12 3C12.2263 3 12.4444 3.08505 12.6118 3.23852L22 11.8389H19.2727V20.0839ZM9.27273 10.9228V16.4195H14.7273V10.9228H9.27273ZM11.0909 12.755H12.9091V14.5873H11.0909V12.755Z" />
			</g>
			<defs>
				<clipPath id="clip0_295_2314">
					<rect width="24" height="24" fill="white" />
				</clipPath>
			</defs>
		</symbol>
		<symbol id="menu-dashboard" viewBox="0 0 24 24">
			<g clip-path="url(#clip0_295_2293)">
				<path d="M4 12.8889H11.1111V4H4V12.8889ZM4 20H11.1111V14.6667H4V20ZM12.8889 20H20V11.1111H12.8889V20ZM12.8889 4V9.33333H20V4H12.8889Z" />
			</g>
			<defs>
				<clipPath id="clip0_295_2293">
					<rect width="24" height="24" fill="white" />
				</clipPath>
			</defs>
		</symbol>
		<symbol id="menu-dashboard2" viewBox="0 0 24 24">
			<g clip-path="url(#clip0_295_2307)">
				<path d="M20 22H4C3.73478 22 3.48043 21.8946 3.29289 21.7071C3.10536 21.5196 3 21.2652 3 21V8H21V21C21 21.2652 20.8946 21.5196 20.7071 21.7071C20.5196 21.8946 20.2652 22 20 22ZM21 6H3V3C3 2.73478 3.10536 2.48043 3.29289 2.29289C3.48043 2.10536 3.73478 2 4 2H20C20.2652 2 20.5196 2.10536 20.7071 2.29289C20.8946 2.48043 21 2.73478 21 3V6ZM7 11V15H11V11H7ZM7 17V19H17V17H7ZM13 12V14H17V12H13Z" />
			</g>
			<defs>
				<clipPath id="clip0_295_2307">
					<rect width="24" height="24" fill="white" />
				</clipPath>
			</defs>
		</symbol>
		<symbol id="menu-question" viewBox="0 0 24 24">
			<g clip-path="url(#clip0_295_2300)">
				<path d="M12 22C6.477 22 2 17.523 2 12C2 6.477 6.477 2 12 2C17.523 2 22 6.477 22 12C22 17.523 17.523 22 12 22ZM11 15V17H13V15H11ZM13 13.355C13.8037 13.1128 14.4936 12.59 14.9442 11.8817C15.3947 11.1735 15.5759 10.3271 15.4547 9.49647C15.3336 8.66588 14.9181 7.90644 14.284 7.35646C13.6499 6.80647 12.8394 6.50254 12 6.5C11.1909 6.49994 10.4067 6.78015 9.78079 7.29299C9.15492 7.80583 8.72601 8.51963 8.567 9.313L10.529 9.706C10.5847 9.42743 10.7183 9.1704 10.9144 8.96482C11.1104 8.75923 11.3608 8.61354 11.6364 8.54471C11.912 8.47587 12.2015 8.48671 12.4712 8.57597C12.7409 8.66523 12.9797 8.82924 13.1598 9.04891C13.34 9.26858 13.454 9.53489 13.4887 9.81684C13.5234 10.0988 13.4773 10.3848 13.3558 10.6416C13.2343 10.8984 13.0423 11.1154 12.8023 11.2673C12.5623 11.4193 12.2841 11.5 12 11.5C11.7348 11.5 11.4804 11.6054 11.2929 11.7929C11.1054 11.9804 11 12.2348 11 12.5V14H13V13.355Z" />
			</g>
			<defs>
				<clipPath id="clip0_295_2300">
					<rect width="24" height="24" fill="white" />
				</clipPath>
			</defs>
		</symbol>
		<symbol id="telegram" viewBox="0 0 24 24">
			<g clip-path="url(#clip0_188_252)">
				<path d="M12 22C6.477 22 2 17.523 2 12C2 6.477 6.477 2 12 2C17.523 2 22 6.477 22 12C22 17.523 17.523 22 12 22ZM8.89 13.17L8.903 13.163L9.773 16.033C9.885 16.344 10.039 16.4 10.226 16.374C10.414 16.349 10.513 16.248 10.636 16.13L11.824 14.982L14.374 16.87C14.84 17.127 15.175 16.994 15.291 16.438L16.948 8.616C17.131 7.888 16.811 7.596 16.246 7.828L6.513 11.588C5.849 11.854 5.853 12.226 6.393 12.391L8.89 13.171V13.17Z" fill="#333333" />
			</g>
			<defs>
				<clipPath id="clip0_188_252">
					<rect width="24" height="24" fill="white" />
				</clipPath>
			</defs>
		</symbol>
		<symbol id="github" viewBox="0 0 24 24">
			<g clip-path="url(#clip0_github)">
				<path d="M12 2C6.477 2 2 6.477 2 12C2 16.418 4.865 20.166 8.84 21.49C9.34 21.581 9.52 21.272 9.52 21.007C9.52 20.769 9.512 20.003 9.507 19.154C6.726 19.8 6.14 17.789 6.14 17.789C5.685 16.573 5.031 16.265 5.031 16.265C4.132 15.614 5.098 15.625 5.098 15.625C6.094 15.693 6.628 16.683 6.628 16.683C7.523 18.262 8.969 17.836 9.54 17.58C9.629 16.928 9.889 16.502 10.175 16.272C7.954 16.039 5.62 15.142 5.62 11.291C5.62 10.17 6.01 9.255 6.648 8.538C6.548 8.285 6.205 7.344 6.746 6.013C6.746 6.013 7.587 5.744 9.496 7.001C10.295 6.778 11.152 6.668 12 6.664C12.848 6.668 13.705 6.778 14.505 7.001C16.413 5.744 17.253 6.013 17.253 6.013C17.795 7.344 17.452 8.285 17.352 8.538C17.992 9.255 18.38 10.17 18.38 11.291C18.38 15.152 16.042 16.036 13.814 16.264C14.172 16.55 14.492 17.113 14.492 17.974C14.492 19.214 14.482 20.677 14.482 21.007C14.482 21.275 14.662 21.587 15.172 21.489C19.142 20.162 22 16.417 22 12C22 6.477 17.523 2 12 2Z" />
			</g>
			<defs>
				<clipPath id="clip0_github">
					<rect width="24" height="24" fill="white" />
				</clipPath>
			</defs>
		</symbol>
		<symbol id="linkedin" viewBox="0 0 24 24">
			<g clip-path="url(#clip0_linkedin)">
				<path d="M12 2C6.477 2 2 6.477 2 12C2 17.523 6.477 22 12 22C17.523 22 22 17.523 22 12C22 6.477 17.523 2 12 2ZM8.5 17H6.5V9H8.5V17ZM7.5 8C6.948 8 6.5 7.552 6.5 7C6.5 6.448 6.948 6 7.5 6C8.052 6 8.5 6.448 8.5 7C8.5 7.552 8.052 8 7.5 8ZM18 17H16V13.25C16 12.192 15.714 11.5 14.815 11.5C13.767 11.5 13.25 12.233 13 13.25V17H11V9H13V10C13.434 9.434 14.317 9 15.286 9C16.884 9 18 10.116 18 12.25V17Z" />
			</g>
			<defs>
				<clipPath id="clip0_linkedin">
					<rect width="24" height="24" fill="white" />
				</clipPath>
			</defs>
		</symbol>
		<symbol id="whatsapp" viewBox="0 0 24 24">
			<g clip-path="url(#clip0_188_249)">
				<path d="M2.00401 22L3.35601 17.032C2.46515 15.5049 1.99711 13.768 2.00001 12C2.00001 6.477 6.47701 2 12 2C17.523 2 22 6.477 22 12C22 17.523 17.523 22 12 22C10.2328 22.0029 8.49667 21.5352 6.97001 20.645L2.00401 22ZM8.39101 7.308C8.26188 7.31602 8.13569 7.35003 8.02001 7.408C7.91153 7.46943 7.81251 7.54622 7.72601 7.636C7.60601 7.749 7.53801 7.847 7.46501 7.942C7.09542 8.423 6.89662 9.01342 6.90001 9.62C6.90201 10.11 7.03001 10.587 7.23001 11.033C7.63901 11.935 8.31201 12.89 9.20101 13.775C9.41501 13.988 9.62401 14.202 9.84901 14.401C10.9524 15.3725 12.2673 16.073 13.689 16.447L14.258 16.534C14.443 16.544 14.628 16.53 14.814 16.521C15.1053 16.506 15.3896 16.4271 15.647 16.29C15.813 16.202 15.891 16.158 16.03 16.07C16.03 16.07 16.073 16.042 16.155 15.98C16.29 15.88 16.373 15.809 16.485 15.692C16.568 15.606 16.64 15.505 16.695 15.39C16.773 15.227 16.851 14.916 16.883 14.657C16.907 14.459 16.9 14.351 16.897 14.284C16.893 14.177 16.804 14.066 16.707 14.019L16.125 13.758C16.125 13.758 15.255 13.379 14.724 13.137C14.668 13.1126 14.608 13.0987 14.547 13.096C14.4786 13.089 14.4095 13.0967 14.3443 13.1186C14.2791 13.1405 14.2193 13.1761 14.169 13.223V13.221C14.164 13.221 14.097 13.278 13.374 14.154C13.3325 14.2098 13.2754 14.2519 13.2098 14.2751C13.1443 14.2982 13.0733 14.3013 13.006 14.284C12.9409 14.2666 12.877 14.2445 12.815 14.218C12.691 14.166 12.648 14.146 12.563 14.109L12.558 14.107C11.9859 13.8572 11.4562 13.5198 10.988 13.107C10.862 12.997 10.745 12.877 10.625 12.761C10.2316 12.3842 9.88873 11.958 9.60501 11.493L9.54601 11.398C9.50364 11.3342 9.46937 11.2653 9.44401 11.193C9.40601 11.046 9.50501 10.928 9.50501 10.928C9.50501 10.928 9.74801 10.662 9.86101 10.518C9.9551 10.3983 10.0429 10.2738 10.124 10.145C10.242 9.955 10.279 9.76 10.217 9.609C9.93701 8.925 9.64701 8.244 9.34901 7.568C9.29001 7.434 9.11501 7.338 8.95601 7.319C8.90201 7.313 8.84801 7.307 8.79401 7.303C8.65972 7.29633 8.52515 7.29766 8.39101 7.307V7.308Z" fill="#333333" />
			</g>
			<defs>
				<clipPath id="clip0_188_249">
					<rect width="24" height="24" fill="white" />
				</clipPath>
			</defs>
		</symbol>
		<symbol id="profile" viewBox="0 0 32 32">
			<circle cx="16" cy="16" r="16" fill="#F7F7F7" />
			<g clip-path="url(#clip0_224_1424)">
				<path d="M10.6666 22.667C10.6666 21.2525 11.2285 19.896 12.2287 18.8958C13.2289 17.8956 14.5855 17.3337 16 17.3337C17.4144 17.3337 18.771 17.8956 19.7712 18.8958C20.7714 19.896 21.3333 21.2525 21.3333 22.667H20C20 21.6061 19.5785 20.5887 18.8284 19.8386C18.0782 19.0884 17.0608 18.667 16 18.667C14.9391 18.667 13.9217 19.0884 13.1715 19.8386C12.4214 20.5887 12 21.6061 12 22.667H10.6666ZM16 16.667C13.79 16.667 12 14.877 12 12.667C12 10.457 13.79 8.66699 16 8.66699C18.21 8.66699 20 10.457 20 12.667C20 14.877 18.21 16.667 16 16.667ZM16 15.3337C17.4733 15.3337 18.6666 14.1403 18.6666 12.667C18.6666 11.1937 17.4733 10.0003 16 10.0003C14.5266 10.0003 13.3333 11.1937 13.3333 12.667C13.3333 14.1403 14.5266 15.3337 16 15.3337Z" fill="#333333" />
			</g>
			<defs>
				<clipPath id="clip0_224_1424">
					<rect width="16" height="16" fill="white" transform="translate(8 8)" />
				</clipPath>
			</defs>
		</symbol>
		<symbol id="password-open" viewBox="0 0 20 20">
			<g clip-path="url(#clip0_219_1606)">
				<path d="M10.0002 2.5C14.4935 2.5 18.2319 5.73333 19.016 10C18.2327 14.2667 14.4935 17.5 10.0002 17.5C5.50688 17.5 1.76854 14.2667 0.984375 10C1.76771 5.73333 5.50688 2.5 10.0002 2.5ZM10.0002 15.8333C11.6998 15.833 13.3489 15.2557 14.6776 14.196C16.0063 13.1363 16.936 11.6569 17.3144 10C16.9346 8.34442 16.0043 6.86667 14.6757 5.80835C13.3471 4.75004 11.6988 4.17377 10.0002 4.17377C8.30162 4.17377 6.65328 4.75004 5.32469 5.80835C3.99609 6.86667 3.06585 8.34442 2.68604 10C3.06446 11.6569 3.9941 13.1363 5.32283 14.196C6.65155 15.2557 8.30065 15.833 10.0002 15.8333V15.8333ZM10.0002 13.75C9.00565 13.75 8.05182 13.3549 7.34856 12.6516C6.6453 11.9484 6.25021 10.9946 6.25021 10C6.25021 9.00544 6.6453 8.05161 7.34856 7.34835C8.05182 6.64509 9.00565 6.25 10.0002 6.25C10.9948 6.25 11.9486 6.64509 12.6519 7.34835C13.3551 8.05161 13.7502 9.00544 13.7502 10C13.7502 10.9946 13.3551 11.9484 12.6519 12.6516C11.9486 13.3549 10.9948 13.75 10.0002 13.75ZM10.0002 12.0833C10.5527 12.0833 11.0826 11.8638 11.4733 11.4731C11.864 11.0824 12.0835 10.5525 12.0835 10C12.0835 9.44747 11.864 8.91756 11.4733 8.52686C11.0826 8.13616 10.5527 7.91667 10.0002 7.91667C9.44767 7.91667 8.91777 8.13616 8.52707 8.52686C8.13637 8.91756 7.91688 9.44747 7.91688 10C7.91688 10.5525 8.13637 11.0824 8.52707 11.4731C8.91777 11.8638 9.44767 12.0833 10.0002 12.0833Z" />
			</g>
			<defs>
				<clipPath id="clip0_219_1606">
					<rect width="20" height="20" fill="white" />
				</clipPath>
			</defs>
		</symbol>
		<symbol id="password-close" viewBox="0 0 20 20">
			<g clip-path="url(#clip0_221_1463)">
				<path d="M7.78547 15.6511L6.1763 15.2195L6.83214 12.7703C5.85044 12.4083 4.93807 11.8806 4.13464 11.2103L2.34047 13.0053L1.1613 11.8261L2.9563 10.032C1.94303 8.81844 1.26221 7.36261 0.980469 5.80698L2.62047 5.50781C3.25297 9.00948 6.3163 11.6661 10.0005 11.6661C13.6838 11.6661 16.748 9.00948 17.3805 5.50781L19.0205 5.80615C18.7391 7.36199 18.0586 8.81812 17.0455 10.032L18.8396 11.8261L17.6605 13.0053L15.8663 11.2103C15.0629 11.8806 14.1505 12.4083 13.1688 12.7703L13.8246 15.2203L12.2155 15.6511L11.5588 13.2011C10.5274 13.3779 9.47351 13.3779 8.44214 13.2011L7.78547 15.6511Z" />
			</g>
			<defs>
				<clipPath id="clip0_221_1463">
					<rect width="20" height="20" fill="white" />
				</clipPath>
			</defs>
		</symbol>
		<symbol id="my-subscriptions" viewBox="0 0 24 24">
			<g clip-path="url(#clip0_224_396)">
				<path d="M2 9H21C21.2652 9 21.5196 9.10536 21.7071 9.29289C21.8946 9.48043 22 9.73478 22 10V20C22 20.2652 21.8946 20.5196 21.7071 20.7071C21.5196 20.8946 21.2652 21 21 21H3C2.73478 21 2.48043 20.8946 2.29289 20.7071C2.10536 20.5196 2 20.2652 2 20V9ZM3 3H18V7H2V4C2 3.73478 2.10536 3.48043 2.29289 3.29289C2.48043 3.10536 2.73478 3 3 3ZM15 14V16H18V14H15Z" fill="#9C99AD" />
			</g>
			<defs>
				<clipPath id="clip0_224_396">
					<rect width="24" height="24" fill="white" />
				</clipPath>
			</defs>
		</symbol>
		<symbol id="log-out" viewBox="0 0 32 32">
			<circle cx="16" cy="16" r="16" fill="#9C99AD" />
			<g clip-path="url(#clip0_224_1431)">
				<path d="M11.3327 22.6663C11.1559 22.6663 10.9863 22.5961 10.8613 22.4711C10.7363 22.3461 10.666 22.1765 10.666 21.9997V9.99967C10.666 9.82286 10.7363 9.65329 10.8613 9.52827C10.9863 9.40325 11.1559 9.33301 11.3327 9.33301H20.666C20.8428 9.33301 21.0124 9.40325 21.1374 9.52827C21.2624 9.65329 21.3327 9.82286 21.3327 9.99967V21.9997C21.3327 22.1765 21.2624 22.3461 21.1374 22.4711C21.0124 22.5961 20.8428 22.6663 20.666 22.6663H11.3327ZM17.9993 18.6663L21.3327 15.9997L17.9993 13.333V15.333H13.9993V16.6663H17.9993V18.6663Z" fill="white" />
			</g>
			<defs>
				<clipPath id="clip0_224_1431">
					<rect width="16" height="16" fill="white" transform="translate(8 8)" />
				</clipPath>
			</defs>
		</symbol>
		<symbol id="input-ok" viewBox="0 0 32 32">
			<g clip-path="url(#clip0_217_164)">
				<path d="M15.9998 29.3333C8.63584 29.3333 2.6665 23.364 2.6665 16C2.6665 8.63596 8.63584 2.66663 15.9998 2.66663C23.3638 2.66663 29.3332 8.63596 29.3332 16C29.3332 23.364 23.3638 29.3333 15.9998 29.3333ZM14.6705 21.3333L24.0972 11.9053L22.2118 10.02L14.6705 17.5626L10.8985 13.7906L9.01317 15.676L14.6705 21.3333Z" fill="#5C5C5C" />
			</g>
			<defs>
				<clipPath id="clip0_217_164">
					<rect width="32" height="32" fill="white" />
				</clipPath>
			</defs>
		</symbol>
		<symbol id="input-error" viewBox="0 0 22 22">
			<g clip-path="url(#clip0_305_1535)">
				<path d="M10.9997 20.1668C5.93692 20.1668 1.83301 16.0629 1.83301 11.0002C1.83301 5.93741 5.93692 1.8335 10.9997 1.8335C16.0624 1.8335 20.1663 5.93741 20.1663 11.0002C20.1663 16.0629 16.0624 20.1668 10.9997 20.1668ZM10.083 13.7502V15.5835H11.9163V13.7502H10.083ZM10.083 6.41683V11.9168H11.9163V6.41683H10.083Z" fill="#FD4646" />
			</g>
			<defs>
				<clipPath id="clip0_305_1535">
					<rect width="22" height="22" fill="white" />
				</clipPath>
			</defs>
		</symbol>
		<symbol id="file-copy" viewBox="0 0 24 24">
			<g clip-path="url(#clip0_188_132)">
				<path d="M7 6V3C7 2.73478 7.10536 2.48043 7.29289 2.29289C7.48043 2.10536 7.73478 2 8 2H20C20.2652 2 20.5196 2.10536 20.7071 2.29289C20.8946 2.48043 21 2.73478 21 3V17C21 17.2652 20.8946 17.5196 20.7071 17.7071C20.5196 17.8946 20.2652 18 20 18H17V21C17 21.552 16.55 22 15.993 22H4.007C3.87513 22.0008 3.7444 21.9755 3.62232 21.9256C3.50025 21.8757 3.38923 21.8022 3.29566 21.7093C3.20208 21.6164 3.12779 21.5059 3.07705 21.3841C3.02632 21.2624 3.00013 21.1319 3 21L3.003 7C3.003 6.448 3.453 6 4.01 6H7ZM5.003 8L5 20H15V8H5.003ZM9 6H17V16H19V4H9V6Z" fill="#171717" />
			</g>
			<defs>
				<clipPath id="clip0_188_132">
					<rect width="24" height="24" fill="white" />
				</clipPath>
			</defs>
		</symbol>
		<symbol id="file-copy-success" viewBox="0 0 24 24">
			<g clip-path="url(#clip0_305_1254)">
				<path d="M12 22C6.477 22 2 17.523 2 12C2 6.477 6.477 2 12 2C17.523 2 22 6.477 22 12C22 17.523 17.523 22 12 22ZM11.003 16L18.073 8.929L16.659 7.515L11.003 13.172L8.174 10.343L6.76 11.757L11.003 16Z" />
			</g>
			<defs>
				<clipPath id="clip0_305_1254">
					<rect width="24" height="24" fill="white" />
				</clipPath>
			</defs>
		</symbol>
		<symbol id="exit" viewBox="0 0 24 24">
			<g clip-path="url(#clip0_222_285)">
				<path d="M5 22C4.73478 22 4.48043 21.8946 4.29289 21.7071C4.10536 21.5196 4 21.2652 4 21V3C4 2.73478 4.10536 2.48043 4.29289 2.29289C4.48043 2.10536 4.73478 2 5 2H19C19.2652 2 19.5196 2.10536 19.7071 2.29289C19.8946 2.48043 20 2.73478 20 3V6H18V4H6V20H18V18H20V21C20 21.2652 19.8946 21.5196 19.7071 21.7071C19.5196 21.8946 19.2652 22 19 22H5ZM18 16V13H11V11H18V8L23 12L18 16Z" fill="#333333" />
			</g>
			<defs>
				<clipPath id="clip0_222_285">
					<rect width="24" height="24" fill="white" />
				</clipPath>
			</defs>
		</symbol>
		<symbol id="close" viewBox="0 0 40 40">
			<rect width="40" height="40" rx="20" fill="#171717" fill-opacity="0.1" />
			<g clip-path="url(#clip0_428_1504)">
				<path d="M20.0007 18.586L24.9507 13.636L26.3647 15.05L21.4147 20L26.3647 24.95L24.9507 26.364L20.0007 21.414L15.0507 26.364L13.6367 24.95L18.5867 20L13.6367 15.05L15.0507 13.636L20.0007 18.586Z" fill="#3A3A3C" />
			</g>
			<defs>
				<clipPath id="clip0_428_1504">
					<rect width="24" height="24" fill="white" transform="translate(8 8)" />
				</clipPath>
			</defs>
		</symbol>
		<symbol id="paid-success" viewBox="0 0 160 138">
			<path d="M84.7289 137.553C116.942 137.553 143.056 111.439 143.056 79.2265C143.056 47.0136 116.942 20.8999 84.7289 20.8999C52.516 20.8999 26.4023 47.0136 26.4023 79.2265C26.4023 111.439 52.516 137.553 84.7289 137.553Z" fill="url(#paint0_linear_4300_465)" />
			<path d="M49.5704 101.812L74.0792 34.5127L125.763 89.1604L65.735 116.716C56.1192 121.131 45.9499 111.754 49.5704 101.812Z" fill="#E1DCEB" />
			<path d="M106.608 55.7664C113.744 63.3695 119.495 70.9072 123.028 76.9439C124.795 79.964 125.999 82.5964 126.548 84.6664C126.822 85.7016 126.929 86.5833 126.867 87.2959C126.806 88.0065 126.58 88.5323 126.203 88.886C125.826 89.2396 125.287 89.4323 124.574 89.4484C123.859 89.4646 122.986 89.3022 121.97 88.9629C119.939 88.2844 117.388 86.9157 114.486 84.9609C108.685 81.0535 101.527 74.8359 94.3906 67.2327C87.2546 59.6296 81.5027 52.0919 77.9705 46.0552C76.2034 43.0351 74.999 40.4027 74.4505 38.3327C74.1761 37.2975 74.0694 36.4158 74.1308 35.7032C74.1921 34.9926 74.4185 34.4668 74.7953 34.1131C75.1721 33.7595 75.7111 33.5668 76.4242 33.5507C77.1393 33.5345 78.0125 33.6969 79.0282 34.0362C81.0593 34.7147 83.6102 36.0834 86.5123 38.0382C92.3132 41.9456 99.4716 48.1632 106.608 55.7664Z" fill="#011625" stroke="#011625" stroke-width="0.496396" />
			<mask id="mask0_4300_465" style="mask-type:alpha" maskUnits="userSpaceOnUse" x="48" y="34" width="78" height="84">
				<path d="M49.5704 101.812L74.0792 34.5126L125.763 89.1603L65.735 116.716C56.1192 121.13 45.9499 111.754 49.5704 101.812Z" fill="#E1DCEB" />
			</mask>
			<g mask="url(#mask0_4300_465)">
				<path fill-rule="evenodd" clip-rule="evenodd" d="M72.9286 79.2632C62.5737 65.7024 57.3344 49.5354 55.6445 38.6814L63.9828 37.3832C65.5039 47.1532 70.305 61.9224 79.6356 74.1418C88.8784 86.2461 102.401 95.6852 121.686 95.6852V104.124C99.1795 104.124 83.3713 92.939 72.9286 79.2632Z" fill="#011625" />
				<path fill-rule="evenodd" clip-rule="evenodd" d="M74.0419 76.6698C63.6869 63.109 58.4477 46.942 56.7578 36.088L65.0961 34.7898C66.6172 44.5599 71.4183 59.3291 80.7489 71.5484C89.9917 83.6527 103.514 93.0918 122.799 93.0918V101.531C100.293 101.531 84.4846 90.3456 74.0419 76.6698Z" fill="white" />
				<path fill-rule="evenodd" clip-rule="evenodd" d="M60.702 96.3059C50.3471 82.7451 45.1078 66.5781 43.418 55.7241L51.7563 54.4259C53.2773 64.196 58.0784 78.9652 67.409 91.1845C76.6518 103.289 90.1744 112.728 109.459 112.728V121.167C86.9529 121.167 71.1448 109.982 60.702 96.3059Z" fill="white" />
			</g>
			<circle cx="96.8919" cy="107.273" r="14.8919" fill="#FE0000" />
			<path fill-rule="evenodd" clip-rule="evenodd" d="M102.917 102.754C103.493 103.341 103.485 104.284 102.899 104.86L95.8287 111.81C95.2492 112.379 94.3202 112.379 93.7408 111.81L90.8828 109C90.2962 108.424 90.2881 107.481 90.8647 106.894C91.4412 106.308 92.3841 106.3 92.9706 106.876L94.7847 108.66L100.811 102.736C101.397 102.16 102.34 102.168 102.917 102.754Z" fill="white" />
			<path d="M126.015 36.1736L126.015 36.1734C126.897 33.9355 127.248 31.7036 127.616 29.3642C127.679 28.9656 127.742 28.5639 127.808 28.1585L126.015 36.1736ZM126.015 36.1736C125.865 36.5556 125.432 36.7445 125.051 36.5936L125.049 36.5931C124.667 36.4447 124.478 36.0128 124.629 35.6313L124.629 35.6313M126.015 36.1736L124.629 35.6313M124.629 35.6313C125.469 33.4947 125.801 31.3551 126.138 29.1826M124.629 35.6313L126.138 29.1826M126.138 29.1826C126.203 28.7628 126.268 28.3418 126.338 27.9194L126.138 29.1826ZM127.193 27.3046C127.6 27.3716 127.874 27.7535 127.808 28.1584L126.338 27.9193C126.404 27.5134 126.788 27.2378 127.193 27.3046Z" fill="#011625" stroke="#011625" stroke-width="0.496396" />
			<path d="M131.136 42.1426L131.136 42.1428C130.799 42.3769 130.334 42.2927 130.099 41.956C129.865 41.6209 129.948 41.1581 130.285 40.9235C135.283 37.4636 140.18 32.8043 143.822 27.9232L143.822 27.923C144.066 27.5945 144.534 27.5263 144.865 27.771C145.194 28.0144 145.263 28.4799 145.018 28.809C141.286 33.8116 136.263 38.5915 131.136 42.1426Z" fill="#011625" stroke="#011625" stroke-width="0.496396" />
			<path d="M144.894 45.4145L144.894 45.4141C144.781 45.0201 144.368 44.7914 143.972 44.9035C140.278 45.9601 136.142 46.5738 132.337 45.4127L132.337 45.4127C131.943 45.2924 131.526 45.5145 131.407 45.9044L131.407 45.9045C131.287 46.2941 131.508 46.7112 131.901 46.8314L144.894 45.4145ZM144.894 45.4145C145.007 45.8043 144.78 46.2161 144.384 46.3311M144.894 45.4145L144.384 46.3311M144.384 46.3311C140.365 47.4793 135.937 48.0635 131.902 46.8315L144.384 46.3311Z" fill="#011625" stroke="#011625" stroke-width="0.496396" />
			<circle cx="132.139" cy="54.1586" r="2.97838" fill="#1749B3" />
			<circle cx="107.318" cy="23.3819" r="2.97838" fill="#1749B3" />
			<path d="M113.046 36.517C112.789 35.4527 111.275 35.4527 111.018 36.517L110.685 37.8955C110.593 38.2759 110.296 38.5728 109.916 38.6646L108.537 38.9974C107.473 39.2543 107.473 40.7681 108.537 41.0251L109.916 41.3578C110.296 41.4497 110.593 41.7466 110.685 42.1269L111.018 43.5055C111.275 44.5698 112.789 44.5698 113.046 43.5055L113.378 42.1269C113.47 41.7466 113.767 41.4497 114.147 41.3578L115.526 41.0251C116.59 40.7681 116.59 39.2543 115.526 38.9974L114.147 38.6646C113.767 38.5728 113.47 38.2759 113.378 37.8955L113.046 36.517Z" fill="#1749B3" />
			<path fill-rule="evenodd" clip-rule="evenodd" d="M100.351 13.6082C100.652 14.3736 100.275 15.2381 99.5098 15.539C97.325 16.3982 94.5252 19.1654 92.6558 22.6098C91.2328 25.2316 90.5416 27.8795 90.8318 30.0464C91.7061 28.7985 92.7527 27.7749 93.9666 27.1174C96.1426 25.9387 98.6254 26.0638 101.029 27.7018C103.129 29.133 103.986 31.1695 103.759 33.1987C103.542 35.1388 102.359 36.8926 100.753 37.9945C99.1234 39.1128 96.9596 39.6285 94.7276 38.945C93.4623 38.5575 92.2489 37.8083 91.1383 36.6707C90.0791 40.7949 90.1172 45.9609 91.8681 50.5299C92.1624 51.2979 91.7784 52.159 91.0104 52.4533C90.2424 52.7476 89.3812 52.3636 89.0869 51.5956C86.7778 45.57 87.0778 38.6882 88.9608 33.6761C88.9073 33.5794 88.8542 33.4815 88.8016 33.3822C86.8208 29.6421 88.0068 24.9318 90.0381 21.1891C92.0851 17.4175 95.3311 13.9818 98.4198 12.7673C99.1852 12.4663 100.05 12.8428 100.351 13.6082ZM92.305 33.42C93.4296 35.0178 94.5965 35.7899 95.5997 36.0971C96.8629 36.484 98.0946 36.2065 99.0677 35.5387C100.065 34.8544 100.691 33.8292 100.799 32.8678C100.896 31.9954 100.592 31.0079 99.3518 30.163C97.7805 29.0922 96.4901 29.1378 95.3852 29.7362C94.2834 30.333 93.1926 31.5819 92.305 33.42Z" fill="#E3E3E3" />
			<path fill-rule="evenodd" clip-rule="evenodd" d="M148.425 71.8509C132.816 66.0491 120.87 73.2634 117.007 77.3438C116.065 78.3393 114.494 78.3823 113.498 77.44C112.503 76.4976 112.46 74.9267 113.402 73.9312C118.308 68.7493 132.272 60.5512 150.155 67.1979C151.44 67.6755 152.094 69.1042 151.616 70.3891C151.139 71.674 149.71 72.3285 148.425 71.8509Z" fill="#CCC6D9" />
			<path fill-rule="evenodd" clip-rule="evenodd" d="M132.543 77.0665C132.892 76.939 133.258 76.7695 133.541 76.524C133.877 76.2325 134.013 75.8571 134.105 75.4619C134.223 74.9542 134.27 74.4134 134.412 73.9048C134.465 73.716 134.567 73.6446 134.611 73.6129C134.721 73.5329 134.832 73.5115 134.937 73.5195C135.062 73.5288 135.232 73.5771 135.345 73.7913C135.361 73.8219 135.381 73.8686 135.395 73.9326C135.406 73.9795 135.412 74.1262 135.423 74.1867C135.45 74.3356 135.473 74.4846 135.494 74.6343C135.565 75.1328 135.605 75.5561 135.828 76.0141C136.131 76.6358 136.435 77.0161 136.846 77.1846C137.244 77.3475 137.72 77.3169 138.328 77.1891C138.386 77.1747 138.443 77.1624 138.5 77.1523C138.768 77.1042 139.024 77.285 139.077 77.5594C139.13 77.8337 138.959 78.1009 138.694 78.1612C138.638 78.1737 138.584 78.1856 138.53 78.1966C137.708 78.4056 136.757 79.1515 136.204 79.8047C136.034 80.0061 135.784 80.5691 135.53 80.9283C135.342 81.1933 135.131 81.3679 134.954 81.4296C134.835 81.4712 134.735 81.4648 134.652 81.4438C134.532 81.4134 134.433 81.3465 134.356 81.2402C134.314 81.182 134.276 81.104 134.257 81.0044C134.249 80.9565 134.248 80.8347 134.248 80.7796C134.196 80.5963 134.132 80.4173 134.086 80.2324C133.976 79.7911 133.76 79.5117 133.502 79.1427C133.262 78.7973 133.004 78.5802 132.625 78.407C132.576 78.3947 132.179 78.2947 132.038 78.2373C131.833 78.1531 131.736 78.0122 131.7 77.9363C131.64 77.8075 131.634 77.695 131.646 77.6012C131.663 77.4628 131.724 77.3443 131.831 77.2486C131.898 77.1891 131.997 77.1313 132.13 77.1032C132.233 77.0811 132.505 77.0684 132.543 77.0665ZM134.875 76.3473C134.893 76.3895 134.913 76.4319 134.933 76.4747C135.377 77.3852 135.873 77.8935 136.476 78.1402L136.496 78.1482C136.093 78.456 135.728 78.7999 135.449 79.1297C135.334 79.2655 135.182 79.5475 135.017 79.8368C134.868 79.3379 134.624 78.9853 134.317 78.544C134.082 78.2073 133.836 77.9538 133.534 77.7473C133.769 77.6236 133.992 77.4788 134.187 77.3097C134.511 77.0281 134.726 76.7018 134.875 76.3473Z" fill="#1749B3" />
			<path d="M42.5492 84.8854C42.5119 85.1987 42.227 85.4215 41.9137 85.382C41.6026 85.3424 41.3788 85.0558 41.4184 84.742L42.5492 84.8854ZM42.5492 84.8854L42.7957 84.9147C42.7421 85.3649 42.3325 85.6849 41.8827 85.6283L41.8823 85.6282C41.4358 85.5714 41.1155 85.1611 41.1721 84.7113C41.5411 81.723 42.8184 79.2211 45.0593 77.2043C45.3955 76.9017 45.9142 76.9309 46.2144 77.2696C46.5161 77.6072 46.4873 78.1259 46.152 78.4278L46.1519 78.4279C44.2137 80.1715 43.1151 82.3267 42.7956 84.9158L42.5492 84.8854Z" fill="#011625" stroke="#011625" stroke-width="0.496396" />
			<path d="M16.2753 90.0656L16.2751 90.0656C15.672 89.8704 15.3845 89.3588 15.3418 88.7678C15.301 88.2263 15.4869 87.5831 15.5964 87.286C15.5964 87.2859 15.5964 87.2859 15.5964 87.2858L15.8293 87.3717L16.2753 90.0656ZM16.2753 90.0656C16.9811 90.2935 17.5324 90.1818 17.9391 89.889C18.327 89.6104 18.5709 89.1577 18.6782 88.626L18.6783 88.6259M16.2753 90.0656L18.6783 88.6259M18.6783 88.6259C18.7805 88.1185 18.7574 87.5173 18.6751 86.9577C18.6011 86.4545 18.4767 85.9685 18.3388 85.591M18.6783 88.6259L18.3388 85.591M40.8408 104.922C40.8105 104.693 40.774 104.391 40.73 104.029C40.4357 101.601 39.8091 96.4319 38.513 91.8567C37.5566 88.4789 36.2695 85.4127 34.4165 84.1521C29.1223 80.552 22.9772 80.4426 19.372 83.9998C18.888 84.4774 18.4478 84.9979 18.0598 85.5562C18.357 86.2986 18.6236 87.6405 18.4349 88.5769L40.8408 104.922ZM40.8408 104.922C40.8992 105.357 40.981 105.608 41.0118 105.655C41.1581 105.891 41.3554 105.927 41.4899 105.931C41.6844 105.934 41.8292 105.874 41.9405 105.791C42.0908 105.677 42.2012 105.503 42.2262 105.257C42.239 105.121 42.2188 104.938 42.1832 104.745C42.1753 104.705 42.1652 104.664 42.1553 104.624C42.1323 104.53 42.11 104.439 42.118 104.369M40.8408 104.922L18.3388 85.591M18.3388 85.591C18.6992 85.0859 19.1039 84.613 19.5463 84.1765C23.0377 80.7316 29.042 80.7976 34.2769 84.3573C35.1522 84.9528 35.9138 85.9906 36.5789 87.3214C37.2422 88.6483 37.7981 90.2428 38.2742 91.9244C39.5643 96.4785 40.1884 101.625 40.4832 104.056C40.5274 104.42 40.5642 104.724 40.5947 104.955L40.5948 104.955C40.6251 105.181 40.662 105.362 40.6963 105.496C40.7134 105.562 40.7302 105.619 40.746 105.664C40.759 105.701 40.7774 105.749 40.8017 105.788C41.0084 106.119 41.3022 106.173 41.4827 106.179L41.4854 106.179C41.7394 106.183 41.9373 106.103 42.0888 105.99L42.09 105.989C42.2964 105.833 42.4413 105.595 42.4732 105.282L42.4733 105.28C42.4895 105.108 42.4637 104.898 42.4272 104.7L42.4268 104.697C42.4191 104.658 42.4098 104.619 42.4015 104.585C42.3996 104.578 42.3978 104.57 42.396 104.563C42.3895 104.537 42.3839 104.513 42.3787 104.491C42.3723 104.462 42.3682 104.44 42.3661 104.422C42.3639 104.404 42.3647 104.397 42.3646 104.397L42.118 104.369M42.118 104.369C42.1847 103.807 42.2806 103.251 42.3767 102.694C42.3907 102.613 42.4047 102.531 42.4187 102.45C42.7818 100.303 43.368 98.2506 44.0536 96.1849C44.2375 95.6305 44.4203 95.0738 44.6035 94.5158C46.5895 88.4679 48.6241 82.2718 52.6757 77.2863C52.8741 77.0419 52.839 76.6803 52.5945 76.4801M42.118 104.369L42.3645 104.398C42.4303 103.843 42.525 103.294 42.6212 102.737C42.6352 102.655 42.6493 102.574 42.6633 102.492L42.6634 102.491C43.0236 100.361 43.6056 98.3227 44.2891 96.2631L44.0641 96.1884L44.2891 96.2631C44.4727 95.7099 44.655 95.1549 44.8375 94.5991C46.8265 88.5431 48.8472 82.3909 52.8683 77.4428L52.8684 77.4427C53.1522 77.0932 53.1028 76.576 52.7523 76.2885M52.5945 76.4801L52.7528 76.2889C52.7526 76.2888 52.7524 76.2886 52.7523 76.2885M52.5945 76.4801C52.3522 76.2795 51.9933 76.3154 51.7927 76.5603L52.5945 76.4801ZM52.7523 76.2885C52.4028 75.9997 51.8874 76.053 51.6007 76.403L51.6001 76.4037C47.4022 81.568 45.2916 87.9824 43.2495 94.189C43.0785 94.7085 42.9081 95.2265 42.7369 95.7423L42.7369 95.7423C42.2946 97.0759 41.8915 98.4072 41.5599 99.7625M52.7523 76.2885L41.5599 99.7625M41.5599 99.7625C41.1304 96.9181 40.4778 93.398 39.4931 90.2916C38.9836 88.6841 38.377 87.1826 37.6668 85.9247C36.958 84.6692 36.1373 83.6409 35.1929 82.9983L35.1928 82.9983C29.3291 79.0108 22.457 78.999 18.399 83.0047L18.3989 83.0048C18.0436 83.3558 17.7075 83.7281 17.3955 84.1196C14.2732 80.3669 9.00027 79.5424 4.89126 82.293C4.89121 82.2931 4.89116 82.2931 4.89111 82.2931L5.02918 82.4994M41.5599 99.7625L16.5206 85.6637C16.4891 85.6198 16.4573 85.5764 16.4252 85.5334C16.453 85.4857 16.4811 85.4382 16.5096 85.3909L16.7222 85.519C14.1193 81.8916 9.34644 80.9874 5.66266 83.4533C5.40005 83.6286 5.04694 83.5568 4.87077 83.2937C4.69686 83.0304 4.76657 82.6747 5.02918 82.4994M5.02918 82.4994C9.04574 79.8105 14.201 80.6276 17.2392 84.3201L5.02918 82.4994ZM16.9898 88.5496C16.9867 88.5498 16.9822 88.55 16.9756 88.5497C16.9746 88.5496 16.9736 88.5496 16.9725 88.5495L16.9898 88.5496ZM16.9898 88.5496C16.9969 88.5428 17.0091 88.5273 17.0234 88.4919C17.0424 88.445 17.0573 88.3836 17.0747 88.2981L17.0747 88.2978C17.1 88.1735 17.1139 88.0364 17.1181 87.8919M16.9898 88.5496L17.1181 87.8919M17.1181 87.8919C17.0618 88.0521 16.9855 88.3109 16.9726 88.5451L17.1181 87.8919Z" fill="#011625" stroke="#011625" stroke-width="0.496396" />
			<defs>
				<linearGradient id="paint0_linear_4300_465" x1="84.2793" y1="1.90733" x2="85.4741" y2="206.741" gradientUnits="userSpaceOnUse">
					<stop stop-color="#E9E6E6" />
					<stop offset="0.276042" stop-color="#F7F7F7" />
				</linearGradient>
			</defs>
		</symbol>
		<symbol id="steps-one" viewBox="0 0 173 173">
			<g filter="url(#filter0_d_188_109)">
				<path fill-rule="evenodd" clip-rule="evenodd" d="M8.02015 122.685C8.63763 122.465 9.28741 122.172 9.78849 121.749C10.3836 121.246 10.6256 120.598 10.7882 119.917C10.9968 119.041 11.0802 118.108 11.3332 117.231C11.4269 116.905 11.6072 116.782 11.6846 116.727C11.8801 116.589 12.0778 116.552 12.2637 116.566C12.4841 116.582 12.7868 116.665 12.9859 117.035C13.0143 117.088 13.0512 117.168 13.076 117.279C13.0941 117.36 13.1058 117.613 13.125 117.717C13.1729 117.974 13.213 118.231 13.2506 118.489C13.3759 119.349 13.4479 120.079 13.8436 120.869C14.3805 121.942 14.9185 122.598 15.6481 122.888C16.3536 123.169 17.1972 123.117 18.2749 122.896C18.3775 122.871 18.4789 122.85 18.5794 122.833C19.0545 122.75 19.5088 123.062 19.6021 123.535C19.6954 124.008 19.3935 124.469 18.9225 124.573C18.8242 124.595 18.7274 124.615 18.6315 124.634C17.1752 124.995 15.4891 126.281 14.5093 127.408C14.2073 127.756 13.7652 128.727 13.3141 129.346C12.9813 129.803 12.6072 130.105 12.2932 130.211C12.0827 130.283 11.9053 130.272 11.7587 130.236C11.5458 130.183 11.3691 130.068 11.2335 129.884C11.1597 129.784 11.0912 129.649 11.0586 129.478C11.043 129.395 11.0412 129.185 11.0415 129.09C10.9496 128.774 10.8371 128.465 10.7552 128.146C10.5596 127.385 10.176 126.903 9.72035 126.266C9.29415 125.67 8.83638 125.296 8.16532 124.997C8.07802 124.976 7.3736 124.803 7.12483 124.704C6.76144 124.559 6.58826 124.316 6.52544 124.185C6.41863 123.963 6.40764 123.769 6.42893 123.607C6.46051 123.368 6.56768 123.164 6.75789 122.999C6.87571 122.896 7.05173 122.797 7.28736 122.748C7.46941 122.71 7.95237 122.688 8.02015 122.685ZM12.1526 121.444C12.1853 121.517 12.2201 121.59 12.257 121.664C13.0434 123.234 13.9227 124.111 14.9916 124.537L15.0275 124.551C14.3124 125.082 13.6651 125.675 13.1704 126.244C12.9667 126.478 12.697 126.964 12.4057 127.463C12.1409 126.603 11.708 125.995 11.1636 125.233C10.7477 124.653 10.3119 124.215 9.77643 123.859C10.192 123.646 10.5884 123.396 10.9337 123.104C11.5086 122.618 11.8886 122.056 12.1526 121.444Z" fill="#1749B3" />
				<circle cx="23.72" cy="17.9533" r="3.46" fill="#1749B3" />
				<circle cx="161.543" cy="90.0367" r="3.46" fill="#1749B3" />
				<path d="M80.81 145.973C117.117 145.973 146.55 116.541 146.55 80.2333C146.55 43.9261 117.117 14.4933 80.81 14.4933C44.5028 14.4933 15.07 43.9261 15.07 80.2333C15.07 116.541 44.5028 145.973 80.81 145.973Z" fill="url(#paint0_linear_188_109)" />
				<path fill-rule="evenodd" clip-rule="evenodd" d="M80.5217 40.4433C87.6876 40.4433 93.4967 34.6342 93.4967 27.4683C93.4967 20.3024 87.6876 14.4933 80.5217 14.4933C73.3558 14.4933 67.5467 20.3024 67.5467 27.4683C67.5467 34.6342 73.3558 40.4433 80.5217 40.4433ZM80.2334 34.6767C84.0552 34.6767 87.1534 31.5785 87.1534 27.7567C87.1534 23.9349 84.0552 20.8367 80.2334 20.8367C76.4115 20.8367 73.3134 23.9349 73.3134 27.7567C73.3134 31.5785 76.4115 34.6767 80.2334 34.6767Z" fill="#011625" />
				<path d="M80.2622 131.614C94.2914 131.614 105.664 120.241 105.664 106.212C105.664 92.1829 94.2914 80.81 80.2622 80.81C66.233 80.81 54.86 92.1829 54.86 106.212C54.86 120.241 66.233 131.614 80.2622 131.614Z" fill="#FE0000" />
				<path d="M120.466 87.3257V67.8372C120.466 57.2072 116.243 47.0126 108.726 39.496C101.21 31.9794 91.0151 27.7567 80.3851 27.7567C69.7551 27.7567 59.5604 31.9794 52.0439 39.496C44.5273 47.0126 40.3046 57.2072 40.3046 67.8372V87.3257C40.305 91.8031 39.0384 96.1891 36.6512 99.9769C34.264 103.765 30.8535 106.8 26.8141 108.731C25.8857 109.173 25.102 109.87 24.5542 110.74C24.0065 111.61 23.7172 112.618 23.7201 113.647V113.752C23.7194 114.124 23.7919 114.491 23.9336 114.835C24.0752 115.178 24.2832 115.49 24.5455 115.753C24.8079 116.016 25.1196 116.224 25.4626 116.367C25.8057 116.509 26.1735 116.582 26.5449 116.582H134.22C134.591 116.582 134.959 116.509 135.302 116.367C135.645 116.224 135.957 116.016 136.219 115.753C136.482 115.49 136.69 115.178 136.831 114.835C136.973 114.491 137.046 114.124 137.045 113.752V113.647C137.045 112.622 136.755 111.617 136.209 110.75C135.662 109.883 134.881 109.188 133.956 108.747C129.914 106.814 126.502 103.777 124.115 99.9861C121.727 96.1952 120.462 91.8057 120.466 87.3257Z" fill="#E1DCEB" />
				<path fill-rule="evenodd" clip-rule="evenodd" d="M137.323 116.563H23.72V113.103H137.323V116.563Z" fill="#011625" />
				<path fill-rule="evenodd" clip-rule="evenodd" d="M49.1558 125.387C46.3932 127.886 43.6384 130.333 40.9499 132.911C40.3695 133.464 40.3477 134.374 40.8968 134.948C41.4476 135.528 42.3636 135.546 42.9385 134.995C45.6141 132.434 48.3448 130.007 51.089 127.526C51.6802 126.988 51.7259 126.076 51.197 125.489C50.6609 124.899 49.747 124.85 49.1558 125.387Z" fill="#011625" />
				<path fill-rule="evenodd" clip-rule="evenodd" d="M111.56 125.388C114.307 127.888 117.047 130.336 119.719 132.914C120.296 133.466 120.314 134.376 119.762 134.949C119.209 135.528 118.294 135.545 117.723 134.994C115.063 132.432 112.347 130.004 109.618 127.523C109.031 126.986 108.989 126.074 109.521 125.488C110.059 124.899 110.972 124.851 111.56 125.388Z" fill="#011625" />
				<path fill-rule="evenodd" clip-rule="evenodd" d="M78.5911 141.531C78.5474 145.247 78.4715 148.924 78.536 152.64C78.547 153.439 79.1998 154.071 79.9932 154.056C80.7919 154.044 81.4269 153.384 81.4135 152.59C81.3522 148.894 81.4264 145.249 81.4709 141.558C81.478 140.761 80.8401 140.11 80.0511 140.101C79.2545 140.096 78.5982 140.733 78.5911 141.531Z" fill="#011625" />
			</g>
			<defs>
				<filter id="filter0_d_188_109" x="-4" y="0" width="181" height="181" filterUnits="userSpaceOnUse" color-interpolation-filters="sRGB">
					<feFlood flood-opacity="0" result="BackgroundImageFix" />
					<feColorMatrix in="SourceAlpha" type="matrix" values="0 0 0 0 0 0 0 0 0 0 0 0 0 0 0 0 0 0 127 0" result="hardAlpha" />
					<feOffset dy="4" />
					<feGaussianBlur stdDeviation="2" />
					<feComposite in2="hardAlpha" operator="out" />
					<feColorMatrix type="matrix" values="0 0 0 0 0 0 0 0 0 0 0 0 0 0 0 0 0 0 0.25 0" />
					<feBlend mode="normal" in2="BackgroundImageFix" result="effect1_dropShadow_188_109" />
					<feBlend mode="normal" in="SourceGraphic" in2="effect1_dropShadow_188_109" result="shape" />
				</filter>
				<linearGradient id="paint0_linear_188_109" x1="80.3032" y1="-6.91323" x2="81.6499" y2="223.956" gradientUnits="userSpaceOnUse">
					<stop stop-color="#F9F9F9" />
					<stop offset="1" stop-color="#EFEFEF" />
				</linearGradient>
			</defs>
		</symbol>
		<symbol id="steps-two" viewBox="0 0 173 173">
			<path d="M90.2805 149.877C122.182 149.877 148.044 124.299 148.044 92.7483C148.044 61.1972 122.182 35.62 90.2805 35.62C58.3786 35.62 32.517 61.1972 32.517 92.7483C32.517 124.299 58.3786 149.877 90.2805 149.877Z" fill="url(#paint0_linear_188_115)" />
			<path fill-rule="evenodd" clip-rule="evenodd" d="M140.118 129.165C140.645 128.98 141.199 128.733 141.626 128.376C142.133 127.952 142.339 127.406 142.478 126.832C142.656 126.093 142.727 125.307 142.943 124.567C143.023 124.292 143.176 124.188 143.242 124.142C143.409 124.026 143.577 123.995 143.736 124.007C143.924 124.02 144.182 124.09 144.352 124.402C144.376 124.446 144.407 124.514 144.428 124.607C144.444 124.676 144.454 124.889 144.47 124.977C144.511 125.193 144.545 125.41 144.577 125.628C144.684 126.353 144.745 126.969 145.083 127.635C145.54 128.539 145.999 129.092 146.621 129.337C147.223 129.574 147.942 129.529 148.86 129.344C148.948 129.323 149.034 129.305 149.12 129.29C149.525 129.22 149.912 129.483 149.992 129.882C150.071 130.281 149.814 130.67 149.412 130.757C149.329 130.776 149.246 130.793 149.164 130.809C147.923 131.113 146.486 132.198 145.65 133.148C145.393 133.441 145.016 134.259 144.631 134.782C144.348 135.167 144.029 135.421 143.761 135.511C143.582 135.571 143.43 135.562 143.305 135.532C143.124 135.487 142.973 135.39 142.858 135.235C142.795 135.151 142.736 135.037 142.709 134.893C142.695 134.823 142.694 134.646 142.694 134.566C142.616 134.299 142.52 134.039 142.45 133.77C142.283 133.128 141.956 132.722 141.568 132.185C141.204 131.682 140.814 131.367 140.242 131.115C140.168 131.097 139.567 130.952 139.355 130.868C139.045 130.746 138.898 130.541 138.844 130.43C138.753 130.243 138.744 130.079 138.762 129.943C138.789 129.742 138.88 129.569 139.042 129.43C139.143 129.344 139.293 129.26 139.494 129.219C139.649 129.187 140.061 129.168 140.118 129.165ZM143.641 128.119C143.669 128.181 143.699 128.242 143.73 128.305C144.401 129.629 145.15 130.368 146.061 130.727L146.092 130.739C145.482 131.186 144.931 131.686 144.509 132.166C144.335 132.363 144.105 132.774 143.857 133.194C143.631 132.469 143.262 131.956 142.798 131.314C142.444 130.824 142.072 130.456 141.615 130.155C141.97 129.976 142.308 129.765 142.602 129.519C143.092 129.109 143.416 128.635 143.641 128.119Z" fill="#1749B3" />
			<ellipse cx="24.7656" cy="81.6159" rx="2.73572" ry="2.70564" fill="#1749B3" />
			<path d="M44.0357 51.9012L44.0358 51.9012C46.126 53.2353 47.4868 55.0781 48.1798 57.4414L48.4213 57.3705L48.1795 57.4403C48.3014 57.8629 48.7453 58.1022 49.1663 57.9803L49.1666 57.9802C49.5854 57.8584 49.8328 57.4187 49.7078 56.9959C48.905 54.2587 47.3176 52.1128 44.8945 50.5655L44.0357 51.9012ZM44.0357 51.9012C43.6666 51.6653 43.5569 51.1741 43.7964 50.8045L44.0357 51.9012Z" fill="#011625" stroke="#011625" stroke-width="0.503333" />
			<path d="M74.0008 58.2764L74.001 58.2764C74.547 58.0004 74.7434 57.4723 74.6934 56.908C74.6494 56.3923 74.3747 55.8172 74.226 55.5559L74.0008 58.2764ZM74.0008 58.2764C73.3664 58.5966 72.8254 58.5755 72.3933 58.3614C71.9811 58.1577 71.6798 57.7682 71.4966 57.2849L71.4965 57.2849M74.0008 58.2764L71.4965 57.2849M71.4965 57.2849C71.322 56.8239 71.2524 56.257 71.2451 55.7213C71.2386 55.2438 71.2815 54.7744 71.3534 54.4017C70.9392 53.9878 70.4886 53.6101 70.0083 53.2715C66.1983 50.5859 60.5502 51.5457 56.155 55.6497C55.4226 56.3339 54.8629 57.4132 54.4377 58.7533C54.0139 60.0892 53.7316 61.659 53.5376 63.2988L53.5376 63.2988M71.4965 57.2849L53.5376 63.2988M53.5376 63.2988C53.0118 67.7399 53.2039 72.6334 53.2947 74.9458C53.3083 75.2927 53.3196 75.5815 53.3259 75.802L53.3259 75.8026L53.5376 63.2988ZM52.6589 77.0952L52.6616 77.0947C52.8327 77.0624 53.1077 76.9663 53.2556 76.6182C53.2557 76.6178 53.2559 76.6175 53.256 76.6171L53.0243 76.519L52.6589 77.0952ZM52.6589 77.0952C52.4173 77.1381 52.2157 77.092 52.0532 77.0082L52.0519 77.0075M52.6589 77.0952L52.0519 77.0075M52.0519 77.0075C51.8302 76.8915 51.6541 76.6877 51.575 76.3946L51.5746 76.3928M52.0519 77.0075L51.5746 76.3928M51.5746 76.3928C51.5326 76.2325 51.525 76.0296 51.5294 75.8395L51.5295 75.8368M51.5746 76.3928L51.5295 75.8368M51.5295 75.8368C51.5308 75.7984 51.5337 75.7605 51.5364 75.7274C51.5392 75.6923 51.5417 75.664 51.5434 75.636C51.5451 75.6086 51.5455 75.5879 51.5449 75.572C51.5442 75.5556 51.5426 75.5508 51.5433 75.5532L51.7854 75.4845L51.5435 75.5542C51.3973 75.0466 51.225 74.5495 51.0496 74.0436C51.024 73.9698 50.9983 73.8958 50.9727 73.8215L50.9725 73.821M51.5295 75.8368L50.9725 73.821M50.9725 73.821C50.3099 71.8889 49.452 70.075 48.4948 68.2563L48.7175 68.1391M50.9725 73.821L48.7175 68.1391M48.7175 68.1391L48.4948 68.2563C48.2377 67.7678 47.9816 67.2774 47.7251 66.7863C44.9294 61.4339 42.0909 55.9997 37.5489 51.9886L37.5488 51.9886M48.7175 68.1391L37.5488 51.9886M37.5488 51.9886C37.221 51.6989 37.188 51.1967 37.4819 50.8681C37.7731 50.5401 38.2752 50.5125 38.6042 50.8008L38.6049 50.8014C43.3513 54.992 46.3172 60.6628 49.1854 66.1469C49.4255 66.6061 49.665 67.064 49.9048 67.5196L49.9048 67.5196C50.5135 68.6765 51.0861 69.8372 51.5977 71.0295M37.5488 51.9886L51.5977 71.0295M51.5977 71.0295C51.5735 68.3234 51.6576 64.9733 52.1113 61.9531C52.3481 60.3759 52.6929 58.8825 53.1726 57.6007C53.6514 56.3214 54.2708 55.236 55.0668 54.4923L55.0669 54.4923C59.9972 49.8885 66.485 48.8437 70.9276 51.9766L70.9277 51.9767C71.3123 52.2481 71.6823 52.5418 72.033 52.8567C74.4167 48.8899 79.267 47.3344 83.5607 49.2841C83.5608 49.2841 83.5608 49.2841 83.5609 49.2842L51.5977 71.0295ZM73.0894 56.9367C73.0858 56.9361 73.0866 56.937 73.0947 56.9358L73.0894 56.9367ZM73.0894 56.9367C73.0905 56.9413 73.0916 56.946 73.0926 56.9506C73.0929 56.9524 73.0933 56.9543 73.0936 56.9565C73.0938 56.9572 73.0939 56.9581 73.094 56.9589C73.0962 56.9731 73.0985 56.9949 73.1 57.0225C73.1019 57.0546 73.1023 57.0856 73.1023 57.105L73.0894 56.9367ZM72.986 56.7243L72.9862 56.7246C73.0155 56.8018 73.0384 56.8554 73.0624 56.8947C73.0728 56.9116 73.0812 56.9223 73.0876 56.9291C73.0482 56.764 72.9734 56.5925 72.9069 56.461C72.9289 56.5547 72.9551 56.6432 72.986 56.7243ZM73.3388 56.8984L73.3388 56.8984L73.3388 56.8984Z" fill="#011625" stroke="#011625" stroke-width="0.503333" />
			<rect x="63.6212" y="65.2598" width="99.4368" height="35.4515" rx="12.08" fill="#011625" />
			<rect x="104.668" y="77.4644" width="33.531" height="4.64938" rx="2.32469" fill="#CCC6D9" />
			<rect x="72.2932" y="84.4384" width="66.0747" height="4.64938" rx="2.32469" fill="white" />
			<ellipse cx="150.339" cy="83.2761" rx="5.78121" ry="5.81173" fill="#E1DCEB" />
			<rect x="22.0299" y="94.8996" width="99.4368" height="35.4515" rx="12.08" fill="#E1DCEB" />
			<rect x="46.8892" y="107.104" width="33.531" height="4.64938" rx="2.32469" fill="#FE0000" />
			<rect x="46.8892" y="114.078" width="66.0747" height="4.64938" rx="2.32469" fill="white" />
			<ellipse cx="36.483" cy="112.916" rx="5.78121" ry="5.81173" fill="#FE0000" />
			<defs>
				<linearGradient id="paint0_linear_188_115" x1="89.8352" y1="17.0176" x2="90.9926" y2="217.644" gradientUnits="userSpaceOnUse">
					<stop stop-color="#E9E6E6" />
					<stop offset="0.276042" stop-color="#F7F7F7" />
				</linearGradient>
			</defs>
		</symbol>
		<symbol id="steps-three" viewBox="0 0 173 173">
			<g clip-path="url(#clip0_188_120)">
				<path d="M95.4833 170.533C136.583 170.533 169.9 137.216 169.9 96.1167C169.9 55.0175 136.583 21.7 95.4833 21.7C54.3841 21.7 21.0667 55.0175 21.0667 96.1167C21.0667 137.216 54.3841 170.533 95.4833 170.533Z" fill="url(#paint0_linear_188_120)" />
				<path d="M50.6215 124.933L81.8913 39.0681L147.833 108.791L71.2452 143.949C58.9768 149.58 46.0022 137.618 50.6215 124.933Z" fill="#E1DCEB" />
				<path d="M123.394 66.1848C132.498 75.8853 139.837 85.5025 144.344 93.2044C146.598 97.0576 148.135 100.416 148.835 103.057C149.185 104.378 149.321 105.503 149.243 106.412C149.164 107.319 148.876 107.99 148.395 108.441C147.914 108.892 147.226 109.138 146.316 109.158C145.404 109.179 144.29 108.972 142.994 108.539C140.403 107.673 137.148 105.927 133.445 103.433C126.044 98.4477 116.911 90.5149 107.807 80.8143C98.7022 71.1138 91.3635 61.4966 86.857 53.7947C84.6024 49.9415 83.0657 46.5829 82.3659 43.9418C82.0159 42.6211 81.8797 41.4962 81.958 40.587C82.0362 39.6803 82.325 39.0095 82.8058 38.5583C83.2865 38.107 83.9743 37.8612 84.8841 37.8407C85.7965 37.82 86.9105 38.0272 88.2064 38.4601C90.7979 39.3258 94.0524 41.0721 97.7551 43.5661C105.156 48.5514 114.289 56.4842 123.394 66.1848Z" fill="#011625" stroke="#011625" stroke-width="0.633333" />
				<mask id="mask0_188_120" style="mask-type:alpha" maskUnits="userSpaceOnUse" x="49" y="39" width="99" height="107">
					<path d="M50.6215 124.933L81.8913 39.0681L147.833 108.791L71.2452 143.949C58.9768 149.58 46.0022 137.618 50.6215 124.933Z" fill="#E1DCEB" />
				</mask>
				<g mask="url(#mask0_188_120)">
					<path fill-rule="evenodd" clip-rule="evenodd" d="M80.4253 96.1637C67.2138 78.862 60.5292 58.2352 58.3732 44.3869L69.0117 42.7306C70.9524 55.1958 77.0779 74.0393 88.9824 89.6295C100.775 105.073 118.028 117.116 142.633 117.116V127.883C113.918 127.883 93.7487 113.612 80.4253 96.1637Z" fill="#011625" />
					<path fill-rule="evenodd" clip-rule="evenodd" d="M81.8433 92.8548C68.6319 75.5531 61.9473 54.9263 59.7913 41.078L70.4298 39.4217C72.3705 51.887 78.496 70.7305 90.4005 86.3206C102.193 101.764 119.446 113.807 144.051 113.807V124.574C115.336 124.574 95.1668 110.303 81.8433 92.8548Z" fill="white" />
					<path fill-rule="evenodd" clip-rule="evenodd" d="M64.8263 117.908C51.6148 100.606 44.9302 79.9793 42.7742 66.131L53.4127 64.4747C55.3534 76.94 61.4789 95.7834 73.3834 111.374C85.176 126.817 102.429 138.86 127.034 138.86V149.627C98.3188 149.627 78.1497 135.356 64.8263 117.908Z" fill="white" />
				</g>
				<circle cx="111" cy="131.9" r="19" fill="#FE0000" />
				<path fill-rule="evenodd" clip-rule="evenodd" d="M118.688 126.135C119.424 126.883 119.414 128.086 118.665 128.822L109.645 137.688C108.906 138.415 107.721 138.415 106.981 137.688L103.335 134.104C102.587 133.368 102.576 132.165 103.312 131.417C104.047 130.669 105.25 130.658 105.999 131.394L108.313 133.669L116.002 126.112C116.75 125.376 117.953 125.386 118.688 126.135Z" fill="white" />
				<path d="M148.154 41.1872L148.154 41.187C149.278 38.3317 149.726 35.4841 150.196 32.4994C150.276 31.9908 150.357 31.4782 150.442 30.961L148.154 41.1872ZM148.154 41.1872C147.963 41.6745 147.41 41.9155 146.923 41.7231L146.921 41.7224C146.434 41.533 146.193 40.9821 146.385 40.4953L146.385 40.4953M148.154 41.1872L146.385 40.4953M146.385 40.4953C147.457 37.7693 147.881 35.0395 148.311 32.2676M146.385 40.4953L148.311 32.2676M148.311 32.2676C148.394 31.7321 148.477 31.1949 148.565 30.656L148.311 32.2676ZM149.657 29.8716C150.175 29.9571 150.526 30.4443 150.442 30.9609L148.565 30.6558C148.651 30.138 149.14 29.7864 149.657 29.8716Z" fill="#011625" stroke="#011625" stroke-width="0.633333" />
				<path d="M153.603 47.2475C159.98 42.8331 166.228 36.8884 170.874 30.6607L170.874 30.6605C171.187 30.2414 171.783 30.1543 172.205 30.4665C172.625 30.7771 172.713 31.3712 172.4 31.791C167.639 38.1736 161.23 44.272 154.689 48.8027L154.689 48.8029C154.259 49.1016 153.666 48.9942 153.366 48.5647C153.068 48.1372 153.173 47.5469 153.603 47.2475ZM153.603 47.2475L153.423 46.9874L153.604 47.2472C153.604 47.2473 153.604 47.2474 153.603 47.2475Z" fill="#011625" stroke="#011625" stroke-width="0.633333" />
				<path d="M172.241 52.9766L172.241 52.9772C172.385 53.4745 172.096 54 171.589 54.1467C166.462 55.6117 160.813 56.3569 155.664 54.785C155.162 54.6316 154.88 54.0994 155.033 53.6024L155.033 53.6022C155.185 53.1048 155.717 52.8214 156.219 52.9749L156.219 52.9749C161.074 54.4563 166.352 53.6733 171.064 52.3252C171.57 52.1823 172.096 52.4741 172.241 52.9766Z" fill="#011625" stroke="#011625" stroke-width="0.633333" />
				<circle cx="155.967" cy="64.1333" r="3.8" fill="#1749B3" />
				<circle cx="124.3" cy="24.8667" r="3.8" fill="#1749B3" />
				<path d="M131.61 41.6251C131.282 40.2672 129.351 40.2673 129.023 41.6251L128.599 43.384C128.481 43.8692 128.103 44.2481 127.617 44.3653L125.858 44.7898C124.501 45.1176 124.501 47.0491 125.858 47.3768L127.617 47.8014C128.103 47.9186 128.481 48.2974 128.599 48.7827L129.023 50.5415C129.351 51.8994 131.282 51.8994 131.61 50.5415L132.035 48.7827C132.152 48.2974 132.531 47.9186 133.016 47.8014L134.775 47.3768C136.133 47.0491 136.133 45.1176 134.775 44.7898L133.016 44.3653C132.531 44.2481 132.152 43.8692 132.035 43.384L131.61 41.6251Z" fill="#1749B3" />
				<path fill-rule="evenodd" clip-rule="evenodd" d="M115.411 12.3967C115.795 13.3732 115.315 14.4762 114.338 14.8602C111.551 15.9563 107.979 19.487 105.594 23.8816C103.778 27.2266 102.896 30.6049 103.266 33.3696C104.382 31.7775 105.717 30.4715 107.266 29.6326C110.042 28.1287 113.21 28.2883 116.277 30.3782C118.956 32.2042 120.049 34.8025 119.76 37.3914C119.483 39.8668 117.973 42.1045 115.924 43.5102C113.845 44.937 111.085 45.595 108.237 44.723C106.623 44.2286 105.074 43.2727 103.658 41.8212C102.306 47.0832 102.355 53.6743 104.589 59.5037C104.964 60.4835 104.474 61.5823 103.494 61.9578C102.514 62.3332 101.416 61.8433 101.04 60.8635C98.0941 53.1756 98.4768 44.3953 100.879 38.0006C100.811 37.8772 100.743 37.7523 100.676 37.6256C98.1489 32.8537 99.6621 26.8441 102.254 22.0689C104.865 17.2568 109.007 12.8734 112.948 11.3238C113.924 10.9398 115.027 11.4201 115.411 12.3967ZM105.146 37.6739C106.581 39.7124 108.07 40.6976 109.35 41.0895C110.961 41.583 112.533 41.2291 113.774 40.377C115.047 39.504 115.846 38.196 115.983 36.9693C116.107 35.8562 115.719 34.5963 114.137 33.5184C112.132 32.1522 110.486 32.2103 109.076 32.9739C107.67 33.7353 106.278 35.3287 105.146 37.6739Z" fill="#E3E3E3" />
				<path fill-rule="evenodd" clip-rule="evenodd" d="M176.746 86.7063C156.83 79.304 141.589 88.5085 136.66 93.7146C135.458 94.9846 133.454 95.0395 132.184 93.8372C130.914 92.6349 130.859 90.6306 132.061 89.3605C138.32 82.7491 156.136 72.2894 178.952 80.7698C180.591 81.3791 181.426 83.202 180.817 84.8413C180.208 86.4806 178.385 87.3156 176.746 86.7063Z" fill="#CCC6D9" />
				<path fill-rule="evenodd" clip-rule="evenodd" d="M156.485 93.3609C156.929 93.1981 157.397 92.9818 157.758 92.6687C158.186 92.2968 158.36 91.8178 158.477 91.3136C158.627 90.6658 158.687 89.9758 158.87 89.327C158.937 89.086 159.067 88.9949 159.122 88.9545C159.263 88.8524 159.405 88.8251 159.539 88.8354C159.698 88.8472 159.916 88.9088 160.059 89.1821C160.079 89.2212 160.106 89.2808 160.124 89.3624C160.137 89.4222 160.145 89.6094 160.159 89.6865C160.194 89.8766 160.223 90.0666 160.25 90.2577C160.34 90.8936 160.392 91.4338 160.676 92.0181C161.063 92.8112 161.45 93.2965 161.975 93.5115C162.483 93.7194 163.09 93.6803 163.866 93.5173C163.94 93.4989 164.013 93.4832 164.085 93.4703C164.427 93.4089 164.754 93.6396 164.821 93.9897C164.888 94.3396 164.671 94.6806 164.332 94.7575C164.261 94.7735 164.191 94.7887 164.123 94.8026C163.074 95.0693 161.861 96.021 161.156 96.8543C160.938 97.1113 160.62 97.8297 160.295 98.2879C160.056 98.626 159.787 98.8488 159.56 98.9276C159.409 98.9806 159.281 98.9725 159.176 98.9457C159.023 98.9069 158.895 98.8215 158.798 98.6858C158.745 98.6116 158.695 98.5121 158.672 98.385C158.661 98.3239 158.659 98.1685 158.66 98.0982C158.593 97.8643 158.512 97.636 158.453 97.4C158.313 96.837 158.037 96.4806 157.709 96.0097C157.402 95.569 157.072 95.2921 156.589 95.0711C156.527 95.0554 156.02 94.9278 155.841 94.8546C155.579 94.7472 155.454 94.5674 155.409 94.4706C155.332 94.3063 155.324 94.1627 155.34 94.043C155.362 93.8664 155.44 93.7152 155.576 93.5931C155.661 93.5173 155.788 93.4435 155.958 93.4076C156.089 93.3795 156.436 93.3632 156.485 93.3609ZM159.459 92.4433C159.483 92.4971 159.508 92.5511 159.534 92.6057C160.1 93.7674 160.733 94.416 161.503 94.7307L161.528 94.7409C161.014 95.1336 160.548 95.5724 160.192 95.9932C160.045 96.1664 159.851 96.5262 159.641 96.8953C159.451 96.2588 159.139 95.8089 158.747 95.2459C158.448 94.8163 158.134 94.4929 157.749 94.2294C158.048 94.0716 158.333 93.8868 158.582 93.6711C158.996 93.3118 159.269 92.8955 159.459 92.4433Z" fill="#1749B3" />
				<path d="M41.6667 103.337C41.6191 103.736 41.2555 104.021 40.8558 103.97L41.6667 103.337ZM41.6667 103.337L41.981 103.375C42.3886 100.072 43.7903 97.3223 46.2633 95.0977L46.2634 95.0976C46.6911 94.7125 46.7279 94.0506 46.3429 93.6199C45.9599 93.1878 45.2981 93.1505 44.8692 93.5367C42.0101 96.1098 40.3804 99.3018 39.9096 103.115C39.8375 103.688 40.2461 104.212 40.8158 104.284L40.8162 104.284C41.3902 104.357 41.9128 103.948 41.9811 103.374L41.6667 103.337Z" fill="#011625" stroke="#011625" stroke-width="0.633333" />
				<mask id="path-20-outside-1_188_120" maskUnits="userSpaceOnUse" x="-7.94617" y="88.2801" width="69.5401" height="49.6561" fill="black">
					<rect fill="white" x="-7.94617" y="88.2801" width="69.5401" height="49.6561" />
					<path fill-rule="evenodd" clip-rule="evenodd" d="M8.71406 104.145C8.26324 104.894 7.87803 105.684 7.57485 106.509C7.43956 106.876 7.22167 107.645 7.26869 108.267C7.31643 108.93 7.62612 109.446 8.24117 109.645C9.05802 109.908 9.65436 109.771 10.0819 109.463C10.4937 109.168 10.7731 108.672 10.8993 108.047C11.14 106.852 10.7998 105.14 10.4207 104.192C10.9157 103.48 11.4773 102.816 12.0948 102.207C16.6945 97.6683 24.5349 97.8079 31.2896 102.401C33.6537 104.009 35.2958 107.922 36.5161 112.231C38.417 118.941 39.1892 126.653 39.486 128.901C39.5605 129.456 39.665 129.776 39.7042 129.836C39.8909 130.137 40.1426 130.182 40.3142 130.187C40.5623 130.192 40.7472 130.115 40.8892 130.009C41.0809 129.864 41.2217 129.642 41.2537 129.327C41.27 129.154 41.2442 128.921 41.1987 128.675C41.1655 128.505 41.1009 128.323 41.1156 128.195C41.2131 127.373 41.3595 126.562 41.4992 125.747C41.9625 123.007 42.7104 120.389 43.5851 117.753C46.3635 109.379 48.9395 100.589 54.5857 93.6413C54.8389 93.3295 54.7941 92.8682 54.4821 92.6127C54.173 92.3567 53.7151 92.4025 53.4592 92.715C47.6996 99.8004 45.04 108.748 42.2058 117.288C41.4622 119.53 40.808 121.76 40.3356 124.059C39.8023 120.213 38.9173 114.912 37.4647 110.33C36.1731 106.254 34.3999 102.754 32.1019 101.191C24.7025 96.159 16.1124 96.191 11.0758 101.163C10.5372 101.695 10.0342 102.265 9.5779 102.87C5.73177 97.9428 -0.988934 96.8009 -6.20463 100.292C-6.53968 100.516 -6.62863 100.97 -6.40674 101.306C-6.18197 101.642 -5.73145 101.733 -5.3964 101.51C-0.696406 98.3633 5.39311 99.517 8.71406 104.145ZM9.42138 105.888C9.24201 106.256 9.08181 106.633 8.93782 107.019C8.86218 107.226 8.73721 107.621 8.71721 107.991C8.71345 108.077 8.73168 108.209 8.74143 108.269C8.95528 108.336 9.11787 108.358 9.2339 108.274C9.37914 108.17 9.42981 107.972 9.47411 107.754C9.58598 107.204 9.53868 106.507 9.42138 105.888Z" />
				</mask>
				<path fill-rule="evenodd" clip-rule="evenodd" d="M8.71406 104.145C8.26324 104.894 7.87803 105.684 7.57485 106.509C7.43956 106.876 7.22167 107.645 7.26869 108.267C7.31643 108.93 7.62612 109.446 8.24117 109.645C9.05802 109.908 9.65436 109.771 10.0819 109.463C10.4937 109.168 10.7731 108.672 10.8993 108.047C11.14 106.852 10.7998 105.14 10.4207 104.192C10.9157 103.48 11.4773 102.816 12.0948 102.207C16.6945 97.6683 24.5349 97.8079 31.2896 102.401C33.6537 104.009 35.2958 107.922 36.5161 112.231C38.417 118.941 39.1892 126.653 39.486 128.901C39.5605 129.456 39.665 129.776 39.7042 129.836C39.8909 130.137 40.1426 130.182 40.3142 130.187C40.5623 130.192 40.7472 130.115 40.8892 130.009C41.0809 129.864 41.2217 129.642 41.2537 129.327C41.27 129.154 41.2442 128.921 41.1987 128.675C41.1655 128.505 41.1009 128.323 41.1156 128.195C41.2131 127.373 41.3595 126.562 41.4992 125.747C41.9625 123.007 42.7104 120.389 43.5851 117.753C46.3635 109.379 48.9395 100.589 54.5857 93.6413C54.8389 93.3295 54.7941 92.8682 54.4821 92.6127C54.173 92.3567 53.7151 92.4025 53.4592 92.715C47.6996 99.8004 45.04 108.748 42.2058 117.288C41.4622 119.53 40.808 121.76 40.3356 124.059C39.8023 120.213 38.9173 114.912 37.4647 110.33C36.1731 106.254 34.3999 102.754 32.1019 101.191C24.7025 96.159 16.1124 96.191 11.0758 101.163C10.5372 101.695 10.0342 102.265 9.5779 102.87C5.73177 97.9428 -0.988934 96.8009 -6.20463 100.292C-6.53968 100.516 -6.62863 100.97 -6.40674 101.306C-6.18197 101.642 -5.73145 101.733 -5.3964 101.51C-0.696406 98.3633 5.39311 99.517 8.71406 104.145ZM9.42138 105.888C9.24201 106.256 9.08181 106.633 8.93782 107.019C8.86218 107.226 8.73721 107.621 8.71721 107.991C8.71345 108.077 8.73168 108.209 8.74143 108.269C8.95528 108.336 9.11787 108.358 9.2339 108.274C9.37914 108.17 9.42981 107.972 9.47411 107.754C9.58598 107.204 9.53868 106.507 9.42138 105.888Z" fill="#011625" />
				<path d="M8.71406 104.145L9.25663 104.472L9.4717 104.115L9.22863 103.776L8.71406 104.145ZM7.57485 106.509L8.16911 106.728L8.16927 106.727L7.57485 106.509ZM7.26869 108.267L7.90039 108.221L7.90022 108.219L7.26869 108.267ZM8.24117 109.645L8.04617 110.247L8.04658 110.247L8.24117 109.645ZM10.0819 109.463L9.7124 108.949L9.71184 108.949L10.0819 109.463ZM10.8993 108.047L11.5201 108.172L11.5201 108.172L10.8993 108.047ZM10.4207 104.192L9.90062 103.831L9.70598 104.111L9.83271 104.428L10.4207 104.192ZM12.0948 102.207L11.65 101.756L11.65 101.756L12.0948 102.207ZM31.2896 102.401L31.6458 101.877L31.6457 101.877L31.2896 102.401ZM36.5161 112.231L35.9068 112.404L35.9068 112.404L36.5161 112.231ZM39.486 128.901L38.8581 128.984L38.8583 128.985L39.486 128.901ZM39.7042 129.836L40.2422 129.502L40.2366 129.493L39.7042 129.836ZM40.3142 130.187L40.2959 130.82L40.3027 130.821L40.3142 130.187ZM40.8892 130.009L41.2675 130.517L41.2705 130.515L40.8892 130.009ZM41.2537 129.327L41.8838 129.392L41.8842 129.387L41.2537 129.327ZM41.1987 128.675L41.8216 128.56L41.8203 128.553L41.1987 128.675ZM41.1156 128.195L40.4867 128.12L40.4864 128.123L41.1156 128.195ZM41.4992 125.747L42.1235 125.854L42.1237 125.852L41.4992 125.747ZM43.5851 117.753L44.1862 117.953L44.1862 117.953L43.5851 117.753ZM54.5857 93.6413L55.0772 94.0407L55.0774 94.0405L54.5857 93.6413ZM54.4821 92.6127L54.0782 93.1005L54.0809 93.1027L54.4821 92.6127ZM53.4592 92.715L52.9692 92.3137L52.9677 92.3155L53.4592 92.715ZM42.2058 117.288L41.6047 117.089L41.6047 117.089L42.2058 117.288ZM40.3356 124.059L39.7083 124.146L40.956 124.187L40.3356 124.059ZM37.4647 110.33L36.8609 110.521L36.861 110.521L37.4647 110.33ZM32.1019 101.191L32.4582 100.667L32.4581 100.667L32.1019 101.191ZM11.0758 101.163L10.6309 100.712L10.6308 100.712L11.0758 101.163ZM9.5779 102.87L9.07865 103.26L9.58642 103.91L10.0835 103.252L9.5779 102.87ZM-6.20463 100.292L-5.85305 100.819L-5.85231 100.819L-6.20463 100.292ZM-6.40674 101.306L-6.93525 101.655L-6.93294 101.658L-6.40674 101.306ZM-5.3964 101.51L-5.04483 102.036L-5.04409 102.036L-5.3964 101.51ZM9.42138 105.888L10.0437 105.77L9.68866 103.896L8.85217 105.61L9.42138 105.888ZM8.93782 107.019L8.34436 106.798L8.34294 106.802L8.93782 107.019ZM8.71721 107.991L8.08476 107.957L8.08447 107.963L8.71721 107.991ZM8.74143 108.269L8.11614 108.37L8.17854 108.758L8.55386 108.874L8.74143 108.269ZM9.2339 108.274L8.86535 107.759L8.86216 107.761L9.2339 108.274ZM9.47411 107.754L8.85351 107.627L8.85336 107.628L9.47411 107.754ZM8.1715 103.818C7.70134 104.599 7.2983 105.426 6.98043 106.29L8.16927 106.727C8.45776 105.943 8.82514 105.188 9.25663 104.472L8.1715 103.818ZM6.98059 106.29C6.83646 106.681 6.57966 107.554 6.63716 108.315L7.90022 108.219C7.86368 107.736 8.04265 107.071 8.16911 106.728L6.98059 106.29ZM6.63699 108.312C6.6979 109.158 7.12171 109.948 8.04617 110.247L8.43617 109.042C8.13053 108.943 7.93495 108.701 7.90039 108.221L6.63699 108.312ZM8.04658 110.247C9.03104 110.565 9.84155 110.417 10.4519 109.977L9.71184 108.949C9.46718 109.126 9.085 109.252 8.43575 109.042L8.04658 110.247ZM10.4514 109.978C11.0294 109.563 11.3724 108.903 11.5201 108.172L10.2785 107.921C10.1738 108.44 9.95792 108.773 9.7124 108.949L10.4514 109.978ZM11.5201 108.172C11.6606 107.474 11.6267 106.667 11.519 105.935C11.4105 105.197 11.2192 104.483 11.0087 103.957L9.83271 104.428C10.0013 104.849 10.1696 105.465 10.2658 106.119C10.3628 106.778 10.3786 107.424 10.2784 107.921L11.5201 108.172ZM10.9408 104.554C11.4129 103.875 11.9492 103.24 12.5397 102.658L11.65 101.756C11.0054 102.392 10.4184 103.086 9.90062 103.831L10.9408 104.554ZM12.5396 102.658C16.849 98.4057 24.3301 98.4345 30.9334 102.925L31.6457 101.877C24.7398 97.1813 16.5401 96.931 11.65 101.756L12.5396 102.658ZM30.9333 102.925C31.9848 103.64 32.9265 104.908 33.7653 106.586C34.599 108.254 35.3019 110.268 35.9068 112.404L37.1255 112.059C36.51 109.885 35.7818 107.788 34.8983 106.02C34.0198 104.263 32.9584 102.77 31.6458 101.877L30.9333 102.925ZM35.9068 112.404C37.7916 119.057 38.5576 126.708 38.8581 128.984L40.1139 128.818C39.8208 126.598 39.0423 118.825 37.1255 112.059L35.9068 112.404ZM38.8583 128.985C38.8985 129.285 38.9478 129.528 38.9949 129.712C39.0184 129.803 39.0424 129.884 39.0661 129.951C39.0834 130.001 39.1177 130.095 39.1718 130.179L40.2366 129.493C40.2498 129.514 40.2581 129.53 40.2615 129.537C40.2655 129.545 40.2677 129.55 40.2681 129.551C40.2689 129.552 40.2667 129.547 40.262 129.534C40.2527 129.507 40.2386 129.462 40.2217 129.396C40.1883 129.266 40.148 129.072 40.1137 128.817L38.8583 128.985ZM39.1663 130.171C39.5071 130.719 40.0062 130.812 40.2959 130.82L40.3326 129.554C40.2924 129.553 40.2806 129.548 40.2795 129.547C40.2792 129.547 40.2789 129.547 40.2785 129.547C40.278 129.546 40.2767 129.546 40.2744 129.544C40.2704 129.54 40.2585 129.529 40.2421 129.502L39.1663 130.171ZM40.3027 130.821C40.7027 130.828 41.0228 130.699 41.2675 130.517L40.5108 129.501C40.487 129.519 40.4641 129.531 40.4396 129.539C40.4156 129.547 40.3797 129.555 40.3258 129.554L40.3027 130.821ZM41.2705 130.515C41.6055 130.262 41.8343 129.878 41.8837 129.392L40.6236 129.263C40.6157 129.341 40.5964 129.391 40.5784 129.423C40.5604 129.455 40.5372 129.481 40.5078 129.503L41.2705 130.515ZM41.8842 129.387C41.9091 129.123 41.8692 128.818 41.8215 128.56L40.5759 128.79C40.6192 129.024 40.6308 129.186 40.6231 129.268L41.8842 129.387ZM41.8203 128.553C41.809 128.495 41.7957 128.44 41.7849 128.396C41.7729 128.347 41.7647 128.314 41.7573 128.281C41.7502 128.249 41.7475 128.233 41.7466 128.225C41.7455 128.216 41.7487 128.233 41.7448 128.267L40.4864 128.123C40.4658 128.302 40.502 128.471 40.5211 128.557C40.5521 128.696 40.5602 128.71 40.5772 128.796L41.8203 128.553ZM41.7445 128.269C41.8396 127.468 41.9822 126.678 42.1235 125.854L40.875 125.64C40.7367 126.447 40.5866 127.278 40.4867 128.12L41.7445 128.269ZM42.1237 125.852C42.5795 123.157 43.3167 120.573 44.1862 117.953L42.984 117.554C42.1042 120.205 41.3456 122.857 40.8748 125.641L42.1237 125.852ZM44.1862 117.953C46.9791 109.535 49.5209 100.878 55.0772 94.0407L54.0942 93.2418C48.3581 100.3 45.7479 109.223 42.984 117.554L44.1862 117.953ZM55.0774 94.0405C55.5488 93.46 55.4672 92.6007 54.8834 92.1227L54.0809 93.1027C54.1211 93.1356 54.1289 93.1991 54.0941 93.242L55.0774 94.0405ZM54.886 92.1248C54.3035 91.6425 53.4452 91.7326 52.9692 92.3137L53.9491 93.1164C53.9851 93.0725 54.0425 93.0709 54.0782 93.1005L54.886 92.1248ZM52.9677 92.3155C47.1187 99.511 44.4253 108.59 41.6047 117.089L42.8069 117.488C45.6547 108.907 48.2806 100.09 53.9506 93.1145L52.9677 92.3155ZM41.6047 117.089C40.8567 119.344 40.1944 121.6 39.7152 123.932L40.956 124.187C41.4215 121.921 42.0676 119.716 42.8069 117.488L41.6047 117.089ZM40.9629 123.972C40.4284 120.117 39.5377 114.774 38.0684 110.139L36.861 110.521C38.2969 115.051 39.1761 120.308 39.7083 124.146L40.9629 123.972ZM38.0684 110.139C37.4143 108.074 36.6324 106.137 35.7122 104.507C34.7954 102.883 33.7192 101.525 32.4582 100.667L31.7456 101.714C32.7826 102.42 33.742 103.594 34.6092 105.13C35.473 106.66 36.2235 108.51 36.8609 110.521L38.0684 110.139ZM32.4581 100.667C24.8949 95.5239 15.9494 95.462 10.6309 100.712L11.5208 101.613C16.2754 96.92 24.5101 96.7941 31.7458 101.715L32.4581 100.667ZM10.6308 100.712C10.0713 101.265 9.54795 101.858 9.07234 102.489L10.0835 103.252C10.5205 102.673 11.0031 102.125 11.5209 101.613L10.6308 100.712ZM10.0772 102.481C6.03019 97.2958 -1.06091 96.0869 -6.55695 99.7662L-5.85231 100.819C-0.916962 97.5148 5.43335 98.5897 9.07865 103.26L10.0772 102.481ZM-6.5562 99.7657C-7.18467 100.185 -7.34689 101.032 -6.93524 101.655L-5.87823 100.957C-5.91037 100.908 -5.89468 100.847 -5.85305 100.819L-6.5562 99.7657ZM-6.93294 101.658C-6.51597 102.281 -5.67377 102.456 -5.04483 102.036L-5.74797 100.983C-5.78913 101.01 -5.84798 101.002 -5.88053 100.954L-6.93294 101.658ZM-5.04409 102.036C-0.634125 99.0838 5.07355 100.158 8.1995 104.514L9.22863 103.776C5.71268 98.876 -0.758687 97.6429 -5.74871 100.983L-5.04409 102.036ZM8.85217 105.61C8.66313 105.998 8.49496 106.394 8.34438 106.798L9.53127 107.24C9.66866 106.872 9.82089 106.514 9.99059 106.166L8.85217 105.61ZM8.34294 106.802C8.26118 107.026 8.10997 107.491 8.0848 107.957L9.34962 108.025C9.36446 107.751 9.46318 107.427 9.5327 107.236L8.34294 106.802ZM8.08447 107.963C8.07757 108.122 8.107 108.313 8.11614 108.37L9.36673 108.169C9.36318 108.147 9.35799 108.111 9.35422 108.075C9.35236 108.057 9.35114 108.041 9.3505 108.029C9.34981 108.016 9.35017 108.013 9.34995 108.018L8.08447 107.963ZM8.55386 108.874C8.67522 108.912 8.8325 108.954 8.99822 108.961C9.17565 108.968 9.39935 108.936 9.60564 108.787L8.86216 107.761C8.90329 107.732 8.94668 107.713 8.98504 107.704C9.02098 107.695 9.04525 107.695 9.05047 107.695C9.05518 107.696 9.04819 107.696 9.02516 107.691C9.00246 107.686 8.97146 107.678 8.929 107.665L8.55386 108.874ZM9.60245 108.789C9.80633 108.643 9.916 108.45 9.97888 108.295C10.0395 108.145 10.0726 107.989 10.0949 107.879L8.85336 107.628C8.84301 107.679 8.83423 107.719 8.82537 107.753C8.81653 107.787 8.8095 107.808 8.80484 107.819C8.79499 107.844 8.80671 107.801 8.86535 107.759L9.60245 108.789ZM10.0947 107.88C10.2299 107.216 10.168 106.427 10.0437 105.77L8.79911 106.006C8.90932 106.588 8.94203 107.193 8.85351 107.627L10.0947 107.88Z" fill="#011625" mask="url(#path-20-outside-1_188_120)" />
			</g>
			<defs>
				<linearGradient id="paint0_linear_188_120" x1="94.9097" y1="-2.5319" x2="96.4341" y2="258.808" gradientUnits="userSpaceOnUse">
					<stop stop-color="#E9E6E6" />
					<stop offset="0.276042" stop-color="#F7F7F7" />
				</linearGradient>
				<clipPath id="clip0_188_120">
					<rect width="185" height="185" fill="white" />
				</clipPath>
			</defs>
		</symbol>
	</defs>
</svg>
