<svg xmlns="http://www.w3.org/2000/svg" xmlns:xlink="http://www.w3.org/1999/xlink">
	<defs>
		<symbol id="account-info" viewBox="0 0 24 24">
			<g clip-path="url(#clip0_224_434)">
				<path d="M9.95405 2.2107C11.303 1.92784 12.6958 1.92716 14.045 2.2087C14.1349 2.80199 14.3574 3.36739 14.6958 3.86288C15.0343 4.35837 15.4801 4.77121 16 5.0707C16.5196 5.37123 17.1002 5.55077 17.6987 5.59595C18.2973 5.64114 18.8983 5.55082 19.457 5.3317C20.3753 6.35976 21.0709 7.56674 21.5 8.8767C21.0314 9.25128 20.6532 9.72665 20.3935 10.2675C20.1338 10.8083 19.9993 11.4007 20 12.0007C20 13.2647 20.586 14.3917 21.502 15.1247C21.0704 16.4336 20.3739 17.6396 19.456 18.6677C18.8974 18.4487 18.2966 18.3585 17.6983 18.4037C17.0999 18.4489 16.5195 18.6283 16 18.9287C15.4805 19.2281 15.0351 19.6407 14.6968 20.1358C14.3585 20.6309 14.1361 21.1959 14.046 21.7887C12.6973 22.0722 11.3044 22.0736 9.95505 21.7927C9.86559 21.1989 9.64335 20.6329 9.30487 20.1368C8.96639 19.6408 8.52038 19.2275 8.00005 18.9277C7.48041 18.6273 6.89975 18.448 6.30124 18.403C5.70272 18.3579 5.10176 18.4484 4.54305 18.6677C3.62465 17.6393 2.92905 16.432 2.50005 15.1217C2.96844 14.7473 3.34651 14.2723 3.60618 13.7318C3.86586 13.1913 4.00048 12.5993 4.00005 11.9997C4.00054 11.3996 3.86575 10.8071 3.60571 10.2662C3.34568 9.72537 2.96707 9.25008 2.49805 8.8757C2.92972 7.56683 3.62616 6.3608 4.54405 5.3327C5.1027 5.55166 5.70352 5.6419 6.30184 5.59671C6.90017 5.55153 7.48061 5.37208 8.00005 5.0717C8.51959 4.7723 8.96503 4.35973 9.30331 3.86461C9.64158 3.36949 9.864 2.80454 9.95405 2.2117V2.2107ZM12 15.0007C12.7957 15.0007 13.5588 14.6846 14.1214 14.122C14.684 13.5594 15 12.7964 15 12.0007C15 11.2051 14.684 10.442 14.1214 9.87938C13.5588 9.31677 12.7957 9.0007 12 9.0007C11.2044 9.0007 10.4413 9.31677 9.87873 9.87938C9.31612 10.442 9.00005 11.2051 9.00005 12.0007C9.00005 12.7964 9.31612 13.5594 9.87873 14.122C10.4413 14.6846 11.2044 15.0007 12 15.0007V15.0007Z" fill="#9C99AD" />
			</g>
			<defs>
				<clipPath id="clip0_224_434">
					<rect width="24" height="24" fill="white" />
				</clipPath>
			</defs>
		</symbol>
		<symbol id="arrow-down" viewBox="0 0 20 20">
			<path d="M16.0423 9.36094C16.7418 8.85538 16.8732 7.91214 16.3357 7.25414C15.7982 6.59614 14.7954 6.47257 14.0959 6.97812L9.02938 10.6397C8.32984 11.1453 8.19846 12.0885 8.73594 12.7465C9.27342 13.4045 10.2762 13.5281 10.9758 13.0225L16.0423 9.36094Z" fill="#3A3A3C" />
			<path d="M5.90217 6.98292C5.20195 6.47819 4.19932 6.60296 3.66272 7.26159C3.12613 7.92023 3.25877 8.86332 3.95899 9.36805L9.03042 13.0236C9.73064 13.5283 10.7333 13.4036 11.2699 12.7449C11.8065 12.0863 11.6738 11.1432 10.9736 10.6385L5.90217 6.98292Z" fill="#3A3A3C" />
		</symbol>
		<symbol id="menu-home" viewBox="0 0 24 24">
			<g clip-path="url(#clip0_295_2314)">
				<path d="M19.2727 20.0839C19.2727 20.3269 19.1769 20.5599 19.0065 20.7317C18.836 20.9035 18.6047 21 18.3636 21H5.63636C5.39526 21 5.16403 20.9035 4.99354 20.7317C4.82305 20.5599 4.72727 20.3269 4.72727 20.0839V11.8389H2L11.3882 3.23852C11.5556 3.08505 11.7737 3 12 3C12.2263 3 12.4444 3.08505 12.6118 3.23852L22 11.8389H19.2727V20.0839ZM9.27273 10.9228V16.4195H14.7273V10.9228H9.27273ZM11.0909 12.755H12.9091V14.5873H11.0909V12.755Z" fill="#9C99AD" />
			</g>
			<defs>
				<clipPath id="clip0_295_2314">
					<rect width="24" height="24" fill="white" />
				</clipPath>
			</defs>
		</symbol>
		<symbol id="menu-dashboard" viewBox="0 0 24 24">
			<g clip-path="url(#clip0_295_2293)">
				<path d="M4 12.8889H11.1111V4H4V12.8889ZM4 20H11.1111V14.6667H4V20ZM12.8889 20H20V11.1111H12.8889V20ZM12.8889 4V9.33333H20V4H12.8889Z" fill="#9C99AD" />
			</g>
			<defs>
				<clipPath id="clip0_295_2293">
					<rect width="24" height="24" fill="white" />
				</clipPath>
			</defs>
		</symbol>
		<symbol id="menu-dashboard2" viewBox="0 0 24 24">
			<g clip-path="url(#clip0_295_2307)">
				<path d="M20 22H4C3.73478 22 3.48043 21.8946 3.29289 21.7071C3.10536 21.5196 3 21.2652 3 21V8H21V21C21 21.2652 20.8946 21.5196 20.7071 21.7071C20.5196 21.8946 20.2652 22 20 22ZM21 6H3V3C3 2.73478 3.10536 2.48043 3.29289 2.29289C3.48043 2.10536 3.73478 2 4 2H20C20.2652 2 20.5196 2.10536 20.7071 2.29289C20.8946 2.48043 21 2.73478 21 3V6ZM7 11V15H11V11H7ZM7 17V19H17V17H7ZM13 12V14H17V12H13Z" fill="#9C99AD" />
			</g>
			<defs>
				<clipPath id="clip0_295_2307">
					<rect width="24" height="24" fill="white" />
				</clipPath>
			</defs>
		</symbol>
		<symbol id="menu-question" viewBox="0 0 24 24">
			<g clip-path="url(#clip0_295_2300)">
				<path d="M12 22C6.477 22 2 17.523 2 12C2 6.477 6.477 2 12 2C17.523 2 22 6.477 22 12C22 17.523 17.523 22 12 22ZM11 15V17H13V15H11ZM13 13.355C13.8037 13.1128 14.4936 12.59 14.9442 11.8817C15.3947 11.1735 15.5759 10.3271 15.4547 9.49647C15.3336 8.66588 14.9181 7.90644 14.284 7.35646C13.6499 6.80647 12.8394 6.50254 12 6.5C11.1909 6.49994 10.4067 6.78015 9.78079 7.29299C9.15492 7.80583 8.72601 8.51963 8.567 9.313L10.529 9.706C10.5847 9.42743 10.7183 9.1704 10.9144 8.96482C11.1104 8.75923 11.3608 8.61354 11.6364 8.54471C11.912 8.47587 12.2015 8.48671 12.4712 8.57597C12.7409 8.66523 12.9797 8.82924 13.1598 9.04891C13.34 9.26858 13.454 9.53489 13.4887 9.81684C13.5234 10.0988 13.4773 10.3848 13.3558 10.6416C13.2343 10.8984 13.0423 11.1154 12.8023 11.2673C12.5623 11.4193 12.2841 11.5 12 11.5C11.7348 11.5 11.4804 11.6054 11.2929 11.7929C11.1054 11.9804 11 12.2348 11 12.5V14H13V13.355Z" fill="#9C99AD" />
			</g>
			<defs>
				<clipPath id="clip0_295_2300">
					<rect width="24" height="24" fill="white" />
				</clipPath>
			</defs>
		</symbol>
		<symbol id="telegram" viewBox="0 0 24 24">
			<g clip-path="url(#clip0_188_252)">
				<path d="M12 22C6.477 22 2 17.523 2 12C2 6.477 6.477 2 12 2C17.523 2 22 6.477 22 12C22 17.523 17.523 22 12 22ZM8.89 13.17L8.903 13.163L9.773 16.033C9.885 16.344 10.039 16.4 10.226 16.374C10.414 16.349 10.513 16.248 10.636 16.13L11.824 14.982L14.374 16.87C14.84 17.127 15.175 16.994 15.291 16.438L16.948 8.616C17.131 7.888 16.811 7.596 16.246 7.828L6.513 11.588C5.849 11.854 5.853 12.226 6.393 12.391L8.89 13.171V13.17Z" fill="#333333" />
			</g>
			<defs>
				<clipPath id="clip0_188_252">
					<rect width="24" height="24" fill="white" />
				</clipPath>
			</defs>
		</symbol>
		<symbol id="github" viewBox="0 0 24 24">
			<g clip-path="url(#clip0_github)">
				<path d="M12 2C6.477 2 2 6.477 2 12C2 16.418 4.865 20.166 8.84 21.49C9.34 21.581 9.52 21.272 9.52 21.007C9.52 20.769 9.512 20.003 9.507 19.154C6.726 19.8 6.14 17.789 6.14 17.789C5.685 16.573 5.031 16.265 5.031 16.265C4.132 15.614 5.098 15.625 5.098 15.625C6.094 15.693 6.628 16.683 6.628 16.683C7.523 18.262 8.969 17.836 9.54 17.58C9.629 16.928 9.889 16.502 10.175 16.272C7.954 16.039 5.62 15.142 5.62 11.291C5.62 10.17 6.01 9.255 6.648 8.538C6.548 8.285 6.205 7.344 6.746 6.013C6.746 6.013 7.587 5.744 9.496 7.001C10.295 6.778 11.152 6.668 12 6.664C12.848 6.668 13.705 6.778 14.505 7.001C16.413 5.744 17.253 6.013 17.253 6.013C17.795 7.344 17.452 8.285 17.352 8.538C17.992 9.255 18.38 10.17 18.38 11.291C18.38 15.152 16.042 16.036 13.814 16.264C14.172 16.55 14.492 17.113 14.492 17.974C14.492 19.214 14.482 20.677 14.482 21.007C14.482 21.275 14.662 21.587 15.172 21.489C19.142 20.162 22 16.417 22 12C22 6.477 17.523 2 12 2Z" />
			</g>
			<defs>
				<clipPath id="clip0_github">
					<rect width="24" height="24" fill="white" />
				</clipPath>
			</defs>
		</symbol>
		<symbol id="linkedin" viewBox="0 0 24 24">
			<g clip-path="url(#clip0_linkedin)">
				<path d="M12 2C6.477 2 2 6.477 2 12C2 17.523 6.477 22 12 22C17.523 22 22 17.523 22 12C22 6.477 17.523 2 12 2ZM8.5 17H6.5V9H8.5V17ZM7.5 8C6.948 8 6.5 7.552 6.5 7C6.5 6.448 6.948 6 7.5 6C8.052 6 8.5 6.448 8.5 7C8.5 7.552 8.052 8 7.5 8ZM18 17H16V13.25C16 12.192 15.714 11.5 14.815 11.5C13.767 11.5 13.25 12.233 13 13.25V17H11V9H13V10C13.434 9.434 14.317 9 15.286 9C16.884 9 18 10.116 18 12.25V17Z" />
			</g>
			<defs>
				<clipPath id="clip0_linkedin">
					<rect width="24" height="24" fill="white" />
				</clipPath>
			</defs>
		</symbol>
		<symbol id="whatsapp" viewBox="0 0 24 24">
			<g clip-path="url(#clip0_188_249)">
				<path d="M2.00401 22L3.35601 17.032C2.46515 15.5049 1.99711 13.768 2.00001 12C2.00001 6.477 6.47701 2 12 2C17.523 2 22 6.477 22 12C22 17.523 17.523 22 12 22C10.2328 22.0029 8.49667 21.5352 6.97001 20.645L2.00401 22ZM8.39101 7.308C8.26188 7.31602 8.13569 7.35003 8.02001 7.408C7.91153 7.46943 7.81251 7.54622 7.72601 7.636C7.60601 7.749 7.53801 7.847 7.46501 7.942C7.09542 8.423 6.89662 9.01342 6.90001 9.62C6.90201 10.11 7.03001 10.587 7.23001 11.033C7.63901 11.935 8.31201 12.89 9.20101 13.775C9.41501 13.988 9.62401 14.202 9.84901 14.401C10.9524 15.3725 12.2673 16.073 13.689 16.447L14.258 16.534C14.443 16.544 14.628 16.53 14.814 16.521C15.1053 16.506 15.3896 16.4271 15.647 16.29C15.813 16.202 15.891 16.158 16.03 16.07C16.03 16.07 16.073 16.042 16.155 15.98C16.29 15.88 16.373 15.809 16.485 15.692C16.568 15.606 16.64 15.505 16.695 15.39C16.773 15.227 16.851 14.916 16.883 14.657C16.907 14.459 16.9 14.351 16.897 14.284C16.893 14.177 16.804 14.066 16.707 14.019L16.125 13.758C16.125 13.758 15.255 13.379 14.724 13.137C14.668 13.1126 14.608 13.0987 14.547 13.096C14.4786 13.089 14.4095 13.0967 14.3443 13.1186C14.2791 13.1405 14.2193 13.1761 14.169 13.223V13.221C14.164 13.221 14.097 13.278 13.374 14.154C13.3325 14.2098 13.2754 14.2519 13.2098 14.2751C13.1443 14.2982 13.0733 14.3013 13.006 14.284C12.9409 14.2666 12.877 14.2445 12.815 14.218C12.691 14.166 12.648 14.146 12.563 14.109L12.558 14.107C11.9859 13.8572 11.4562 13.5198 10.988 13.107C10.862 12.997 10.745 12.877 10.625 12.761C10.2316 12.3842 9.88873 11.958 9.60501 11.493L9.54601 11.398C9.50364 11.3342 9.46937 11.2653 9.44401 11.193C9.40601 11.046 9.50501 10.928 9.50501 10.928C9.50501 10.928 9.74801 10.662 9.86101 10.518C9.9551 10.3983 10.0429 10.2738 10.124 10.145C10.242 9.955 10.279 9.76 10.217 9.609C9.93701 8.925 9.64701 8.244 9.34901 7.568C9.29001 7.434 9.11501 7.338 8.95601 7.319C8.90201 7.313 8.84801 7.307 8.79401 7.303C8.65972 7.29633 8.52515 7.29766 8.39101 7.307V7.308Z" fill="#333333" />
			</g>
			<defs>
				<clipPath id="clip0_188_249">
					<rect width="24" height="24" fill="white" />
				</clipPath>
			</defs>
		</symbol>
		<symbol id="profile" viewBox="0 0 32 32">
			<circle cx="16" cy="16" r="16" fill="#F7F7F7" />
			<g clip-path="url(#clip0_224_1424)">
				<path d="M10.6666 22.667C10.6666 21.2525 11.2285 19.896 12.2287 18.8958C13.2289 17.8956 14.5855 17.3337 16 17.3337C17.4144 17.3337 18.771 17.8956 19.7712 18.8958C20.7714 19.896 21.3333 21.2525 21.3333 22.667H20C20 21.6061 19.5785 20.5887 18.8284 19.8386C18.0782 19.0884 17.0608 18.667 16 18.667C14.9391 18.667 13.9217 19.0884 13.1715 19.8386C12.4214 20.5887 12 21.6061 12 22.667H10.6666ZM16 16.667C13.79 16.667 12 14.877 12 12.667C12 10.457 13.79 8.66699 16 8.66699C18.21 8.66699 20 10.457 20 12.667C20 14.877 18.21 16.667 16 16.667ZM16 15.3337C17.4733 15.3337 18.6666 14.1403 18.6666 12.667C18.6666 11.1937 17.4733 10.0003 16 10.0003C14.5266 10.0003 13.3333 11.1937 13.3333 12.667C13.3333 14.1403 14.5266 15.3337 16 15.3337Z" fill="#333333" />
			</g>
			<defs>
				<clipPath id="clip0_224_1424">
					<rect width="16" height="16" fill="white" transform="translate(8 8)" />
				</clipPath>
			</defs>
		</symbol>
		<symbol id="password-open" viewBox="0 0 20 20">
			<g clip-path="url(#clip0_219_1606)">
				<path d="M10.0002 2.5C14.4935 2.5 18.2319 5.73333 19.016 10C18.2327 14.2667 14.4935 17.5 10.0002 17.5C5.50688 17.5 1.76854 14.2667 0.984375 10C1.76771 5.73333 5.50688 2.5 10.0002 2.5ZM10.0002 15.8333C11.6998 15.833 13.3489 15.2557 14.6776 14.196C16.0063 13.1363 16.936 11.6569 17.3144 10C16.9346 8.34442 16.0043 6.86667 14.6757 5.80835C13.3471 4.75004 11.6988 4.17377 10.0002 4.17377C8.30162 4.17377 6.65328 4.75004 5.32469 5.80835C3.99609 6.86667 3.06585 8.34442 2.68604 10C3.06446 11.6569 3.9941 13.1363 5.32283 14.196C6.65155 15.2557 8.30065 15.833 10.0002 15.8333V15.8333ZM10.0002 13.75C9.00565 13.75 8.05182 13.3549 7.34856 12.6516C6.6453 11.9484 6.25021 10.9946 6.25021 10C6.25021 9.00544 6.6453 8.05161 7.34856 7.34835C8.05182 6.64509 9.00565 6.25 10.0002 6.25C10.9948 6.25 11.9486 6.64509 12.6519 7.34835C13.3551 8.05161 13.7502 9.00544 13.7502 10C13.7502 10.9946 13.3551 11.9484 12.6519 12.6516C11.9486 13.3549 10.9948 13.75 10.0002 13.75ZM10.0002 12.0833C10.5527 12.0833 11.0826 11.8638 11.4733 11.4731C11.864 11.0824 12.0835 10.5525 12.0835 10C12.0835 9.44747 11.864 8.91756 11.4733 8.52686C11.0826 8.13616 10.5527 7.91667 10.0002 7.91667C9.44767 7.91667 8.91777 8.13616 8.52707 8.52686C8.13637 8.91756 7.91688 9.44747 7.91688 10C7.91688 10.5525 8.13637 11.0824 8.52707 11.4731C8.91777 11.8638 9.44767 12.0833 10.0002 12.0833Z" fill="#9C99AD" />
			</g>
			<defs>
				<clipPath id="clip0_219_1606">
					<rect width="20" height="20" fill="white" />
				</clipPath>
			</defs>
		</symbol>
		<symbol id="password-close" viewBox="0 0 20 20">
			<g clip-path="url(#clip0_221_1463)">
				<path d="M7.78547 15.6511L6.1763 15.2195L6.83214 12.7703C5.85044 12.4083 4.93807 11.8806 4.13464 11.2103L2.34047 13.0053L1.1613 11.8261L2.9563 10.032C1.94303 8.81844 1.26221 7.36261 0.980469 5.80698L2.62047 5.50781C3.25297 9.00948 6.3163 11.6661 10.0005 11.6661C13.6838 11.6661 16.748 9.00948 17.3805 5.50781L19.0205 5.80615C18.7391 7.36199 18.0586 8.81812 17.0455 10.032L18.8396 11.8261L17.6605 13.0053L15.8663 11.2103C15.0629 11.8806 14.1505 12.4083 13.1688 12.7703L13.8246 15.2203L12.2155 15.6511L11.5588 13.2011C10.5274 13.3779 9.47351 13.3779 8.44214 13.2011L7.78547 15.6511Z" fill="#9C99AD" />
			</g>
			<defs>
				<clipPath id="clip0_221_1463">
					<rect width="20" height="20" fill="white" />
				</clipPath>
			</defs>
		</symbol>
		<symbol id="my-subscriptions" viewBox="0 0 24 24">
			<g clip-path="url(#clip0_224_396)">
				<path d="M2 9H21C21.2652 9 21.5196 9.10536 21.7071 9.29289C21.8946 9.48043 22 9.73478 22 10V20C22 20.2652 21.8946 20.5196 21.7071 20.7071C21.5196 20.8946 21.2652 21 21 21H3C2.73478 21 2.48043 20.8946 2.29289 20.7071C2.10536 20.5196 2 20.2652 2 20V9ZM3 3H18V7H2V4C2 3.73478 2.10536 3.48043 2.29289 3.29289C2.48043 3.10536 2.73478 3 3 3ZM15 14V16H18V14H15Z" fill="#9C99AD" />
			</g>
			<defs>
				<clipPath id="clip0_224_396">
					<rect width="24" height="24" fill="white" />
				</clipPath>
			</defs>
		</symbol>
		<symbol id="log-out" viewBox="0 0 32 32">
			<circle cx="16" cy="16" r="16" fill="#9C99AD" />
			<g clip-path="url(#clip0_224_1431)">
				<path d="M11.3327 22.6663C11.1559 22.6663 10.9863 22.5961 10.8613 22.4711C10.7363 22.3461 10.666 22.1765 10.666 21.9997V9.99967C10.666 9.82286 10.7363 9.65329 10.8613 9.52827C10.9863 9.40325 11.1559 9.33301 11.3327 9.33301H20.666C20.8428 9.33301 21.0124 9.40325 21.1374 9.52827C21.2624 9.65329 21.3327 9.82286 21.3327 9.99967V21.9997C21.3327 22.1765 21.2624 22.3461 21.1374 22.4711C21.0124 22.5961 20.8428 22.6663 20.666 22.6663H11.3327ZM17.9993 18.6663L21.3327 15.9997L17.9993 13.333V15.333H13.9993V16.6663H17.9993V18.6663Z" fill="white" />
			</g>
			<defs>
				<clipPath id="clip0_224_1431">
					<rect width="16" height="16" fill="white" transform="translate(8 8)" />
				</clipPath>
			</defs>
		</symbol>
		<symbol id="input-ok" viewBox="0 0 32 32">
			<g clip-path="url(#clip0_217_164)">
				<path d="M15.9998 29.3333C8.63584 29.3333 2.6665 23.364 2.6665 16C2.6665 8.63596 8.63584 2.66663 15.9998 2.66663C23.3638 2.66663 29.3332 8.63596 29.3332 16C29.3332 23.364 23.3638 29.3333 15.9998 29.3333ZM14.6705 21.3333L24.0972 11.9053L22.2118 10.02L14.6705 17.5626L10.8985 13.7906L9.01317 15.676L14.6705 21.3333Z" fill="#5C5C5C" />
			</g>
			<defs>
				<clipPath id="clip0_217_164">
					<rect width="32" height="32" fill="white" />
				</clipPath>
			</defs>
		</symbol>
		<symbol id="input-error" viewBox="0 0 22 22">
			<g clip-path="url(#clip0_305_1535)">
				<path d="M10.9997 20.1668C5.93692 20.1668 1.83301 16.0629 1.83301 11.0002C1.83301 5.93741 5.93692 1.8335 10.9997 1.8335C16.0624 1.8335 20.1663 5.93741 20.1663 11.0002C20.1663 16.0629 16.0624 20.1668 10.9997 20.1668ZM10.083 13.7502V15.5835H11.9163V13.7502H10.083ZM10.083 6.41683V11.9168H11.9163V6.41683H10.083Z" fill="#FD4646" />
			</g>
			<defs>
				<clipPath id="clip0_305_1535">
					<rect width="22" height="22" fill="white" />
				</clipPath>
			</defs>
		</symbol>
		<symbol id="file-copy" viewBox="0 0 24 24">
			<g clip-path="url(#clip0_188_132)">
				<path d="M7 6V3C7 2.73478 7.10536 2.48043 7.29289 2.29289C7.48043 2.10536 7.73478 2 8 2H20C20.2652 2 20.5196 2.10536 20.7071 2.29289C20.8946 2.48043 21 2.73478 21 3V17C21 17.2652 20.8946 17.5196 20.7071 17.7071C20.5196 17.8946 20.2652 18 20 18H17V21C17 21.552 16.55 22 15.993 22H4.007C3.87513 22.0008 3.7444 21.9755 3.62232 21.9256C3.50025 21.8757 3.38923 21.8022 3.29566 21.7093C3.20208 21.6164 3.12779 21.5059 3.07705 21.3841C3.02632 21.2624 3.00013 21.1319 3 21L3.003 7C3.003 6.448 3.453 6 4.01 6H7ZM5.003 8L5 20H15V8H5.003ZM9 6H17V16H19V4H9V6Z" fill="#171717" />
			</g>
			<defs>
				<clipPath id="clip0_188_132">
					<rect width="24" height="24" fill="white" />
				</clipPath>
			</defs>
		</symbol>
		<symbol id="exit" viewBox="0 0 24 24">
			<g clip-path="url(#clip0_222_285)">
				<path d="M5 22C4.73478 22 4.48043 21.8946 4.29289 21.7071C4.10536 21.5196 4 21.2652 4 21V3C4 2.73478 4.10536 2.48043 4.29289 2.29289C4.48043 2.10536 4.73478 2 5 2H19C19.2652 2 19.5196 2.10536 19.7071 2.29289C19.8946 2.48043 20 2.73478 20 3V6H18V4H6V20H18V18H20V21C20 21.2652 19.8946 21.5196 19.7071 21.7071C19.5196 21.8946 19.2652 22 19 22H5ZM18 16V13H11V11H18V8L23 12L18 16Z" fill="#333333" />
			</g>
			<defs>
				<clipPath id="clip0_222_285">
					<rect width="24" height="24" fill="white" />
				</clipPath>
			</defs>
		</symbol>
	</defs>
</svg>
